<?xml version="1.0" encoding="UTF-8"?>
<svg version="1.1" xmlns="http://www.w3.org/2000/svg" width="800" height="800">
<path d="M0 0 C264 0 528 0 800 0 C800 264 800 528 800 800 C536 800 272 800 0 800 C0 536 0 272 0 0 Z " fill="#FEFEFE" transform="translate(0,0)"/>
<path d="M0 0 C7.71542383 0.99553856 14.8152953 5.34967765 21.640625 8.8515625 C24.02177667 10.04619721 24.02177667 10.04619721 26.65234375 11.05859375 C29 12 29 12 31.3125 13.4375 C34.11024726 15.06409724 36.84039358 16.08953009 39.875 17.17578125 C42.76937623 18.29841615 45.48994376 19.69453446 48.23828125 21.1328125 C50.16239316 22.12927192 50.16239316 22.12927192 53 23 C53 23.66 53 24.32 53 25 C54.423125 25.3403125 54.423125 25.3403125 55.875 25.6875 C60.09197001 26.87271764 63.81074617 28.83184482 67.66796875 30.87890625 C69.79468734 31.9012986 71.69710012 32.52883198 74 33 C74 33.66 74 34.32 74 35 C74.515625 35.103125 75.03125 35.20625 75.5625 35.3125 C82.54341794 37.28147685 89.15250633 40.90327826 95.6875 44 C96.62400391 44.43828125 97.56050781 44.8765625 98.52539062 45.328125 C99.42837891 45.75609375 100.33136719 46.1840625 101.26171875 46.625 C102.48314575 47.20121094 102.48314575 47.20121094 103.72924805 47.7890625 C108.10269638 50.1213175 110.37734534 52.10872992 112.47265625 56.640625 C112.89740234 57.54683594 113.32214844 58.45304687 113.75976562 59.38671875 C114.18966797 60.33160156 114.61957031 61.27648437 115.0625 62.25 C115.49626953 63.17941406 115.93003906 64.10882813 116.37695312 65.06640625 C118.12574439 68.83016705 119.83084342 72.60384056 121.46069336 76.42089844 C122.90901431 79.78844564 124.41937705 83.11542107 125.96875 86.4375 C126.24521866 87.03063492 126.52168732 87.62376984 126.80653381 88.23487854 C127.70314529 90.1571534 128.60151874 92.07859847 129.5 94 C129.96586014 94.99808182 129.96586014 94.99808182 130.44113159 96.0163269 C134.42815001 104.55804122 138.4645902 113.07331773 142.5625 121.5625 C147.37352699 131.54225116 151.91408302 141.63621728 156.42358398 151.75439453 C162.74418852 166.11937259 162.74418852 166.11937259 169.6796875 180.19140625 C171 183 171 183 171 186 C171.99 186 172.98 186 174 186 C174.25394531 185.25363281 174.50789062 184.50726563 174.76953125 183.73828125 C176.07699072 180.8286651 177.37209222 179.348244 179.6875 177.1875 C182.2881736 174.68417782 184.78025493 172.18198533 187.125 169.4375 C191.18865337 164.71210491 195.46634672 160.19285591 199.72924805 155.64819336 C203.17545649 151.96926352 206.58288493 148.2631531 209.9375 144.5 C212.95940331 141.11502143 216.08300873 137.88856746 219.3203125 134.7109375 C221.75191912 132.23409169 223.98526307 129.59746251 226.25 126.96875 C227.93798286 125.06976929 229.68769734 123.27994012 231.5 121.5 C233.93389732 119.10946833 236.21355559 116.64953738 238.4375 114.0625 C240.85617779 111.25423653 243.35899683 108.60029407 246 106 C249.09985651 102.94139633 251.97667861 99.77455013 254.8125 96.47265625 C258.43034743 92.38319656 262.18973844 88.42466768 265.93798828 84.45483398 C268.61652497 81.60623738 271.24155965 78.75230092 273.71484375 75.72265625 C275.54851377 73.53792462 277.21748582 71.81402198 279.4375 70.0625 C282.6262692 67.43768343 285.18170211 64.55631131 287.73828125 61.3203125 C288.15464844 60.88460937 288.57101562 60.44890625 289 60 C289.66 60 290.32 60 291 60 C292.4453125 61.46875 292.4453125 61.46875 294.125 63.5 C297.8696013 67.90358911 301.87550096 71.95451435 306 76 C311.24648581 81.14597842 316.21729432 86.42017671 321 92 C326.04442807 97.72770345 331.18246552 103.28798381 336.6640625 108.6015625 C338.60917486 110.598718 340.42544593 112.63078311 342.2421875 114.7421875 C346.12117324 119.2117023 350.27960016 123.35509926 354.5 127.5 C358.62324574 131.54948464 362.700117 135.58358948 366.46875 139.96875 C370.41187392 144.55178661 374.69110398 148.76340089 379 153 C384.0069869 157.92297706 388.88662519 162.86666374 393.43725586 168.21850586 C395.605436 170.6901838 397.94961147 172.96203489 400.296875 175.26171875 C402.5866779 177.59878822 404.66703551 180.08629544 406.73828125 182.6171875 C407.97214298 184.13577638 407.97214298 184.13577638 410 185 C410.26756104 184.14647949 410.53512207 183.29295898 410.81079102 182.41357422 C412.02049126 178.9411807 413.45428211 175.70578468 415.02734375 172.3828125 C415.32792694 171.74555237 415.62851013 171.10829224 415.9382019 170.45172119 C416.93472432 168.34126352 417.93611133 166.23315247 418.9375 164.125 C419.64635916 162.62594697 420.35493028 161.12675771 421.06323242 159.62744141 C424.99433205 151.31270383 428.94646728 143.00795733 432.8984375 134.703125 C434.12817149 132.11856886 435.35788116 129.53400116 436.58752441 126.94940186 C437.40461075 125.23221778 438.22191242 123.51513616 439.03942871 121.79815674 C444.28177901 110.78543641 449.4448498 99.74409777 454.48681641 88.63793945 C457.24756242 82.57753841 460.13633768 76.59946135 463.15283203 70.66259766 C465.54849906 65.94154307 467.82446308 61.17263395 470.0625 56.375 C474.96740296 45.87948556 480.05681556 35.50445672 485.73828125 25.40234375 C487.09110815 23.02080485 487.09110815 23.02080485 487.78125 20.30859375 C489 18 489 18 491.60546875 16.8828125 C492.78753906 16.63273437 493.96960938 16.38265625 495.1875 16.125 C496.18898071 15.90408691 496.18898071 15.90408691 497.21069336 15.67871094 C498.81353672 15.32570891 500.41833189 14.98151525 502.02441406 14.64355469 C505.59701275 13.87087909 509.1534091 13.03390441 512.7109375 12.1953125 C514.79614351 11.70817912 516.8816884 11.22253346 518.96743774 10.73773193 C520.35646847 10.41436462 521.74512615 10.08939037 523.13339233 9.76275635 C525.11977116 9.29756099 527.10829572 8.84287701 529.09765625 8.390625 C530.83801147 7.9889209 530.83801147 7.9889209 532.61352539 7.57910156 C536.13939312 6.97616318 539.43000073 6.89888458 543 7 C543.54046516 12.58480661 541.47382709 18.05234582 539 23 C538.78058781 24.5912342 538.60940148 26.18929031 538.46484375 27.7890625 C538.37783203 28.73007813 538.29082031 29.67109375 538.20117188 30.640625 C538.11416016 31.62546875 538.02714844 32.6103125 537.9375 33.625 C537.84662109 34.61757812 537.75574219 35.61015625 537.66210938 36.6328125 C537.43781564 39.08823868 537.21726893 41.54394389 537 44 C537.84594727 43.73521851 537.84594727 43.73521851 538.70898438 43.46508789 C541.30387315 42.65724015 543.90185887 41.85982281 546.5 41.0625 C547.386875 40.78470703 548.27375 40.50691406 549.1875 40.22070312 C554.48233455 38.60499994 559.48543111 37.50893802 565 37 C563.19626745 42.95839743 560.63463167 48.56491602 558.125 54.25 C554.95209091 61.45259778 551.87479359 68.67300983 549 76 C547.98047137 78.58385277 546.95924739 81.16702261 545.9375 83.75 C545.69451172 84.37003906 545.45152344 84.99007812 545.20117188 85.62890625 C543.65341817 89.52908136 541.89245527 93.25737896 540 97 C539.30853586 98.84390438 538.6188732 100.68854311 537.9453125 102.5390625 C536.25852118 106.9302961 534.34317361 111.22585587 532.4765625 115.54296875 C531.2519334 118.41015592 530.07607723 121.28551657 528.9375 124.1875 C527.60943682 127.55957812 526.16128579 130.84271322 524.625 134.125 C522.15817368 139.45456304 520.11206583 144.90147761 518.14306641 150.43017578 C516.76125018 154.24270228 515.13891593 157.56494751 513 161 C512.33753471 162.50489161 511.71229006 164.02671049 511.125 165.5625 C509.64067822 169.3809461 508.09726204 173.16482585 506.5 176.9375 C504.86135426 180.84118512 503.3456077 184.75760053 501.9375 188.75 C500.82652068 191.86605356 499.6594142 194.82008975 498.125 197.75 C495.94190927 201.93074517 494.27735708 206.27940015 492.56298828 210.66918945 C490.38541725 216.17609908 487.96627254 221.55467257 485.5 226.9375 C482.36533033 233.78960827 479.52947198 240.67485158 476.95922852 247.7565918 C475.5306896 251.66910898 473.94239636 255.35647628 471.9921875 259.03125 C469.7125891 263.55454761 467.91604558 268.31439763 466 273 C465.14781538 275.06331973 464.29368163 277.12583564 463.4375 279.1875 C463.06496094 280.08855469 462.69242188 280.98960937 462.30859375 281.91796875 C461.27294014 284.35716485 460.21279561 286.77962833 459.1328125 289.19921875 C456.84875002 294.31896434 454.63999806 299.46974316 452.4375 304.625 C452.05142578 305.52734375 451.66535156 306.4296875 451.26757812 307.359375 C450.88923828 308.24367188 450.51089844 309.12796875 450.12109375 310.0390625 C449.75612793 310.89209961 449.39116211 311.74513672 449.01513672 312.62402344 C448.39540824 314.07452791 447.77692612 315.52556674 447.16064453 316.97753906 C445.0488309 321.94311777 442.77903112 326.82832905 440.5 331.71875 C439.47722654 333.95606695 438.49292298 336.21127514 437.54296875 338.48046875 C431.81702207 351.5414256 423.96257768 365.55717634 410.7734375 372.10546875 C397.73013306 376.3123937 384.39984844 371.5216418 372.78808594 365.66674805 C357.15757848 357.49821185 342.38128725 347.69036426 327.6484375 338.02734375 C322.73221056 334.80976358 317.75425112 331.69774083 312.74902344 328.62084961 C309.3848603 326.53992839 306.09255686 324.39384772 302.8515625 322.125 C302.17391846 321.65473389 301.49627441 321.18446777 300.7980957 320.69995117 C299.50880488 319.79904871 298.22804939 318.88575951 296.95776367 317.95825195 C293.6131655 315.573645 293.6131655 315.573645 289.65136719 315.18579102 C286.51896066 316.14772249 284.14325689 317.53902355 281.37109375 319.2890625 C280.26757568 319.97605225 279.16405762 320.66304199 278.02709961 321.37084961 C277.44298309 321.73806122 276.85886658 322.10527283 276.25704956 322.48361206 C262.52428615 331.09805756 248.44174216 338.87378968 234.08251953 346.38525391 C231.35974725 347.81155011 228.64467388 349.25086348 225.93359375 350.69921875 C216.83276831 355.55152279 207.64940756 360.23735239 198.4375 364.875 C197.35452637 365.4230127 196.27155273 365.97102539 195.15576172 366.53564453 C188.87737292 369.67823475 182.57081442 372.52345647 176 375 C176.56121855 370.11365712 178.09412387 366.1497588 180.3125 361.8125 C180.66006348 361.12687988 181.00762695 360.44125977 181.36572266 359.73486328 C188.30300224 346.37872717 196.83674649 333.93394473 205.70068359 321.79833984 C207.09776388 319.86468832 208.4673934 317.91370488 209.83203125 315.95703125 C219.39351262 302.24834424 229.49723366 289.00061526 240 276 C241.45775314 274.17702031 242.91327638 272.3522711 244.36889648 270.52758789 C270.25991079 238.0922923 270.25991079 238.0922923 280 229 C280.98419922 228.00806641 280.98419922 228.00806641 281.98828125 226.99609375 C282.67277344 226.33738281 283.35726563 225.67867187 284.0625 225 C284.67222656 224.401875 285.28195312 223.80375 285.91015625 223.1875 C288 222 288 222 290.7890625 222 C294.95953905 223.29883455 297.8751044 225.35321395 301.3125 228 C302.00037598 228.52110352 302.68825195 229.04220703 303.39697266 229.57910156 C309.77754567 234.55730332 315.40064367 240.19164653 321.04614258 245.97363281 C330.57947751 255.72949711 340.60479104 265.31834695 354.8125 266.25 C361.6397755 266.14694678 366.97111138 263.55743031 372 259 C371.66858642 256.0887591 371.09851691 255.09167803 368.91796875 253.0625 C368.01691406 252.381875 367.11585938 251.70125 366.1875 251 C361.23492204 247.10225683 356.78894538 242.95683844 352.4128418 238.42578125 C349.89395159 235.83406524 347.32533658 233.39502867 344.5703125 231.0546875 C338.45140704 225.76019198 332.7916476 219.97764877 327.07348633 214.25878906 C325.07588048 212.26336586 323.07040647 210.27608944 321.06445312 208.2890625 C313.90465261 201.16008059 307.26974572 193.93056589 301 186 C299.36893396 184.10784747 297.69439003 182.27409776 296 180.4375 C292.10626186 176.21252372 292.10626186 176.21252372 291 174 C290.01 173.67 289.02 173.34 288 173 C287.79890625 173.67417969 287.5978125 174.34835937 287.390625 175.04296875 C285.48883515 179.08694323 282.73012091 182.01569957 279.75 185.3125 C275.78424617 189.73864595 272.02609033 194.20749938 268.50048828 198.9934082 C265.95880773 202.39237866 263.25448535 205.65724231 260.5625 208.9375 C255.4693257 215.16936455 255.4693257 215.16936455 250.5 221.5 C247.26201646 225.70695617 243.91431016 229.82118381 240.5625 233.9375 C239.99233154 234.63786377 239.42216309 235.33822754 238.8347168 236.05981445 C238.2756665 236.74648193 237.71661621 237.43314941 237.140625 238.140625 C231.33907383 245.26666823 225.64027322 252.45675107 220.06396484 259.76025391 C216.60623987 264.264585 213.03471757 268.66914697 209.4375 273.0625 C204.84480208 278.67283362 200.42973884 284.3662596 196.1171875 290.1953125 C193.22092629 294.03205705 190.16743389 297.72866863 187.10546875 301.43359375 C184.67849178 304.39189406 182.3369996 307.40805608 180 310.4375 C177.42726928 313.73381123 174.80641729 316.99034509 172.1875 320.25 C163.01108924 331.61293552 163.01108924 331.61293552 154.34765625 343.36328125 C153.90292969 343.90339844 153.45820313 344.44351562 153 345 C152.34 345 151.68 345 151 345 C150.72099854 344.38576172 150.44199707 343.77152344 150.15454102 343.13867188 C147.94756621 338.28146187 145.73851359 333.42521286 143.52522278 328.57087708 C135.81081285 311.64961119 128.16363636 294.70150698 120.63671875 277.69580078 C117.45216154 270.50249681 114.25687544 263.31394777 111.0625 256.125 C110.72166382 255.35786682 110.38082764 254.59073364 110.02966309 253.800354 C105.47354978 243.54707544 100.90390916 233.3000258 96.3125 223.0625 C95.52020996 221.29592041 95.52020996 221.29592041 94.71191406 219.49365234 C92.1243907 213.72705796 89.53303913 207.96220949 86.9375 202.19921875 C80.38777924 187.64268303 73.92105587 173.05119582 67.5 158.4375 C67.11268707 157.5568689 66.72537415 156.67623779 66.32632446 155.7689209 C65.20579552 153.22022944 64.08671699 150.67090997 62.96875 148.12109375 C62.61709274 147.31914581 62.26543549 146.51719788 61.90312195 145.69094849 C59.54845444 140.3026071 57.27415885 134.88910734 55.08789062 129.42993164 C53.9157528 126.81182396 52.49105367 124.44778364 51 122 C50.16732238 119.97471314 49.37780287 117.93131387 48.625 115.875 C46.67417325 110.67865367 44.52112409 105.6451612 42.18359375 100.61328125 C41.04513414 98.0996526 40.00723358 95.56864788 39 93 C37.67772755 89.63660062 36.26636811 86.34290968 34.75 83.0625 C32.39999342 77.96479342 30.22344757 72.80466421 28.0625 67.625 C25.76344173 62.11681719 23.41609712 56.65233246 20.875 51.25 C18.15863308 45.45655618 15.77560981 39.56667946 13.4296875 33.6171875 C10.79285749 26.94586347 8.03730458 20.3287694 5.1328125 13.76953125 C4.65026001 12.67789673 4.65026001 12.67789673 4.15795898 11.56420898 C3.52038882 10.12594692 2.87937751 8.68920444 2.23461914 7.25415039 C0 2.21958636 0 2.21958636 0 0 Z " fill="#0E86D8" transform="translate(98,213)"/>
<path d="M0 0 C0.54046516 5.58480661 -1.52617291 11.05234582 -4 16 C-4.21941219 17.5912342 -4.39059852 19.18929031 -4.53515625 20.7890625 C-4.62216797 21.73007813 -4.70917969 22.67109375 -4.79882812 23.640625 C-4.88583984 24.62546875 -4.97285156 25.6103125 -5.0625 26.625 C-5.15337891 27.61757812 -5.24425781 28.61015625 -5.33789062 29.6328125 C-5.56218436 32.08823868 -5.78273107 34.54394389 -6 37 C-5.15405273 36.73521851 -5.15405273 36.73521851 -4.29101562 36.46508789 C-1.69612685 35.65724015 0.90185887 34.85982281 3.5 34.0625 C4.386875 33.78470703 5.27375 33.50691406 6.1875 33.22070312 C11.48233455 31.60499994 16.48543111 30.50893802 22 30 C20.19626745 35.95839743 17.63463167 41.56491602 15.125 47.25 C11.95209091 54.45259778 8.87479359 61.67300983 6 69 C4.98047137 71.58385277 3.95924739 74.16702261 2.9375 76.75 C2.57301758 77.68005859 2.57301758 77.68005859 2.20117188 78.62890625 C0.65341817 82.52908136 -1.10754473 86.25737896 -3 90 C-3.69146414 91.84390438 -4.3811268 93.68854311 -5.0546875 95.5390625 C-6.74147882 99.9302961 -8.65682639 104.22585587 -10.5234375 108.54296875 C-11.7480666 111.41015592 -12.92392277 114.28551657 -14.0625 117.1875 C-15.39056318 120.55957812 -16.83871421 123.84271322 -18.375 127.125 C-20.84182632 132.45456304 -22.88793417 137.90147761 -24.85693359 143.43017578 C-26.23874982 147.24270228 -27.86108407 150.56494751 -30 154 C-30.66246529 155.50489161 -31.28770994 157.02671049 -31.875 158.5625 C-33.35932178 162.3809461 -34.90273796 166.16482585 -36.5 169.9375 C-38.13864574 173.84118512 -39.6543923 177.75760053 -41.0625 181.75 C-42.17347932 184.86605356 -43.3405858 187.82008975 -44.875 190.75 C-47.05809073 194.93074517 -48.72264292 199.27940015 -50.43701172 203.66918945 C-52.61458275 209.17609908 -55.03372746 214.55467257 -57.5 219.9375 C-60.63466967 226.78960827 -63.47052802 233.67485158 -66.04077148 240.7565918 C-67.4693104 244.66910898 -69.05760364 248.35647628 -71.0078125 252.03125 C-73.2874109 256.55454761 -75.08395442 261.31439763 -77 266 C-77.85218462 268.06331973 -78.70631837 270.12583564 -79.5625 272.1875 C-79.93503906 273.08855469 -80.30757812 273.98960937 -80.69140625 274.91796875 C-81.72705986 277.35716485 -82.78720439 279.77962833 -83.8671875 282.19921875 C-86.15124998 287.31896434 -88.36000194 292.46974316 -90.5625 297.625 C-90.94857422 298.52734375 -91.33464844 299.4296875 -91.73242188 300.359375 C-92.11076172 301.24367188 -92.48910156 302.12796875 -92.87890625 303.0390625 C-93.24387207 303.89209961 -93.60883789 304.74513672 -93.98486328 305.62402344 C-94.60459176 307.07452791 -95.22307388 308.52556674 -95.83935547 309.97753906 C-97.9511691 314.94311777 -100.22096888 319.82832905 -102.5 324.71875 C-103.52277346 326.95606695 -104.50707702 329.21127514 -105.45703125 331.48046875 C-111.18297793 344.5414256 -119.03742232 358.55717634 -132.2265625 365.10546875 C-145.26986694 369.3123937 -158.60015156 364.5216418 -170.21191406 358.66674805 C-185.84242152 350.49821185 -200.61871275 340.69036426 -215.3515625 331.02734375 C-220.26778944 327.80976358 -225.24574888 324.69774083 -230.25097656 321.62084961 C-233.6151397 319.53992839 -236.90744314 317.39384772 -240.1484375 315.125 C-240.82608154 314.65473389 -241.50372559 314.18446777 -242.2019043 313.69995117 C-243.49119512 312.79904871 -244.77195061 311.88575951 -246.04223633 310.95825195 C-249.3868345 308.573645 -249.3868345 308.573645 -253.34863281 308.18579102 C-256.48103934 309.14772249 -258.85674311 310.53902355 -261.62890625 312.2890625 C-262.73242432 312.97605225 -263.83594238 313.66304199 -264.97290039 314.37084961 C-265.55701691 314.73806122 -266.14113342 315.10527283 -266.74295044 315.48361206 C-280.47571385 324.09805756 -294.55825784 331.87378968 -308.91748047 339.38525391 C-311.64025275 340.81155011 -314.35532612 342.25086348 -317.06640625 343.69921875 C-326.16723169 348.55152279 -335.35059244 353.23735239 -344.5625 357.875 C-345.64547363 358.4230127 -346.72844727 358.97102539 -347.84423828 359.53564453 C-354.12262708 362.67823475 -360.42918558 365.52345647 -367 368 C-366.43878145 363.11365712 -364.90587613 359.1497588 -362.6875 354.8125 C-362.33993652 354.12687988 -361.99237305 353.44125977 -361.63427734 352.73486328 C-354.69699776 339.37872717 -346.16325351 326.93394473 -337.29931641 314.79833984 C-335.90223612 312.86468832 -334.5326066 310.91370488 -333.16796875 308.95703125 C-323.60648738 295.24834424 -313.50276634 282.00061526 -303 269 C-301.54224686 267.17702031 -300.08672362 265.3522711 -298.63110352 263.52758789 C-272.74008921 231.0922923 -272.74008921 231.0922923 -263 222 C-262.34386719 221.33871094 -261.68773437 220.67742187 -261.01171875 219.99609375 C-260.32722656 219.33738281 -259.64273438 218.67867187 -258.9375 218 C-258.32777344 217.401875 -257.71804688 216.80375 -257.08984375 216.1875 C-255 215 -255 215 -252.2109375 215 C-248.04046095 216.29883455 -245.1248956 218.35321395 -241.6875 221 C-240.99962402 221.52110352 -240.31174805 222.04220703 -239.60302734 222.57910156 C-233.22245433 227.55730332 -227.59935633 233.19164653 -221.95385742 238.97363281 C-212.42052249 248.72949711 -202.39520896 258.31834695 -188.1875 259.25 C-181.44803892 259.14827229 -175.87904912 256.61531673 -171 252 C-166.81982761 247.6376401 -166.81982761 247.6376401 -165 242 C-164.34 242 -163.68 242 -163 242 C-162.80857422 241.14148438 -162.80857422 241.14148438 -162.61328125 240.265625 C-161.17231618 234.94231456 -158.51022648 229.95396899 -156 225.0625 C-154.55193546 222.21668976 -153.33035335 219.35614512 -152.1875 216.375 C-150.38908496 211.78904164 -148.26596518 207.42979619 -146.03735352 203.0390625 C-137.59772319 186.37117004 -129.80342227 169.37052401 -121.8359375 152.47314453 C-117.92811847 144.18760762 -114.00898587 135.90763836 -110.0703125 127.63671875 C-109.66047623 126.7759523 -109.25063995 125.91518585 -108.8283844 125.02833557 C-108.41942429 124.16941208 -108.01046417 123.31048859 -107.58911133 122.42553711 C-106.76772092 120.70036758 -105.94635038 118.97518859 -105.125 117.25 C-104.72107025 116.40164581 -104.3171405 115.55329163 -103.90097046 114.67922974 C-98.67879938 103.70589186 -93.53669102 92.70329507 -88.51293945 81.63745117 C-85.75230915 75.57719734 -82.8635796 69.59929855 -79.84716797 63.66259766 C-77.45150094 58.94154307 -75.17553692 54.17263395 -72.9375 49.375 C-68.03259704 38.87948556 -62.94318444 28.50445672 -57.26171875 18.40234375 C-55.90889185 16.02080485 -55.90889185 16.02080485 -55.21875 13.30859375 C-54 11 -54 11 -51.39453125 9.8828125 C-49.62142578 9.50769531 -49.62142578 9.50769531 -47.8125 9.125 C-46.81101929 8.90408691 -46.81101929 8.90408691 -45.78930664 8.67871094 C-44.18646328 8.32570891 -42.58166811 7.98151525 -40.97558594 7.64355469 C-37.40298725 6.87087909 -33.8465909 6.03390441 -30.2890625 5.1953125 C-28.20385649 4.70817912 -26.1183116 4.22253346 -24.03256226 3.73773193 C-22.64353153 3.41436462 -21.25487385 3.08939037 -19.86660767 2.76275635 C-17.88022884 2.29756099 -15.89170428 1.84287701 -13.90234375 1.390625 C-12.74210693 1.12282227 -11.58187012 0.85501953 -10.38647461 0.57910156 C-6.86060688 -0.02383682 -3.56999927 -0.10111542 0 0 Z " fill="#5DBF6C" transform="translate(641,220)"/>
<path d="M0 0 C0.66 0.33 1.32 0.66 2 1 C1.07397687 10.75517466 -1.67639441 18.27438147 -6 27 C-7.40810517 30.30442198 -8.69818082 33.65246498 -10 37 C-11.01520975 39.58557931 -12.03803671 42.16807562 -13.0625 44.75 C-13.30806641 45.37632324 -13.55363281 46.00264648 -13.80664062 46.64794922 C-15.35138514 50.54190642 -17.11067517 54.2635699 -19 58 C-19.69146414 59.84390438 -20.3811268 61.68854311 -21.0546875 63.5390625 C-22.74147882 67.9302961 -24.65682639 72.22585587 -26.5234375 76.54296875 C-27.7480666 79.41015592 -28.92392277 82.28551657 -30.0625 85.1875 C-31.39056318 88.55957812 -32.83871421 91.84271322 -34.375 95.125 C-36.84182632 100.45456304 -38.88793417 105.90147761 -40.85693359 111.43017578 C-42.23874982 115.24270228 -43.86108407 118.56494751 -46 122 C-46.66246529 123.50489161 -47.28770994 125.02671049 -47.875 126.5625 C-49.35932178 130.3809461 -50.90273796 134.16482585 -52.5 137.9375 C-54.13864574 141.84118512 -55.6543923 145.75760053 -57.0625 149.75 C-58.17347932 152.86605356 -59.3405858 155.82008975 -60.875 158.75 C-63.05809073 162.93074517 -64.72264292 167.27940015 -66.43701172 171.66918945 C-68.61458275 177.17609908 -71.03372746 182.55467257 -73.5 187.9375 C-76.63466967 194.78960827 -79.47052802 201.67485158 -82.04077148 208.7565918 C-83.4693104 212.66910898 -85.05760364 216.35647628 -87.0078125 220.03125 C-89.2874109 224.55454761 -91.08395442 229.31439763 -93 234 C-93.85218462 236.06331973 -94.70631837 238.12583564 -95.5625 240.1875 C-95.93503906 241.08855469 -96.30757812 241.98960937 -96.69140625 242.91796875 C-97.72705986 245.35716485 -98.78720439 247.77962833 -99.8671875 250.19921875 C-102.15124998 255.31896434 -104.36000194 260.46974316 -106.5625 265.625 C-106.94857422 266.52734375 -107.33464844 267.4296875 -107.73242188 268.359375 C-108.11076172 269.24367188 -108.48910156 270.12796875 -108.87890625 271.0390625 C-109.24387207 271.89209961 -109.60883789 272.74513672 -109.98486328 273.62402344 C-110.60459176 275.07452791 -111.22307388 276.52556674 -111.83935547 277.97753906 C-113.9511691 282.94311777 -116.22096888 287.82832905 -118.5 292.71875 C-119.52277346 294.95606695 -120.50707702 297.21127514 -121.45703125 299.48046875 C-127.18297793 312.5414256 -135.03742232 326.55717634 -148.2265625 333.10546875 C-161.26986694 337.3123937 -174.60015156 332.5216418 -186.21191406 326.66674805 C-201.84242152 318.49821185 -216.61871275 308.69036426 -231.3515625 299.02734375 C-236.26778944 295.80976358 -241.24574888 292.69774083 -246.25097656 289.62084961 C-249.6151397 287.53992839 -252.90744314 285.39384772 -256.1484375 283.125 C-256.82608154 282.65473389 -257.50372559 282.18446777 -258.2019043 281.69995117 C-259.49119512 280.79904871 -260.77195061 279.88575951 -262.04223633 278.95825195 C-265.3868345 276.573645 -265.3868345 276.573645 -269.34863281 276.18579102 C-272.48103934 277.14772249 -274.85674311 278.53902355 -277.62890625 280.2890625 C-278.73242432 280.97605225 -279.83594238 281.66304199 -280.97290039 282.37084961 C-281.55701691 282.73806122 -282.14113342 283.10527283 -282.74295044 283.48361206 C-296.47571385 292.09805756 -310.55825784 299.87378968 -324.91748047 307.38525391 C-327.64025275 308.81155011 -330.35532612 310.25086348 -333.06640625 311.69921875 C-342.16723169 316.55152279 -351.35059244 321.23735239 -360.5625 325.875 C-361.64547363 326.4230127 -362.72844727 326.97102539 -363.84423828 327.53564453 C-370.12262708 330.67823475 -376.42918558 333.52345647 -383 336 C-382.43878145 331.11365712 -380.90587613 327.1497588 -378.6875 322.8125 C-378.33993652 322.12687988 -377.99237305 321.44125977 -377.63427734 320.73486328 C-370.69699776 307.37872717 -362.16325351 294.93394473 -353.29931641 282.79833984 C-351.90223612 280.86468832 -350.5326066 278.91370488 -349.16796875 276.95703125 C-326.59905208 244.59905208 -326.59905208 244.59905208 -317 235 C-311.54545455 235.45454545 -311.54545455 235.45454545 -309 238 C-307.01751285 238.71706982 -305.01584651 239.38290413 -303 240 C-300 241 -300 241 -298.23828125 242.81640625 C-295.5206298 245.46765784 -292.49603197 247.14678838 -289.1875 248.9375 C-285.34948312 251.06304182 -281.57346457 253.16725272 -278.0625 255.8125 C-274.67557289 258.23173365 -272.02832069 259.88873912 -268 261 C-264.82687024 260.4187538 -261.98303756 259.20102658 -259 258 C-257.33883057 257.48202906 -255.67192195 256.98213563 -254 256.5 C-250.00712233 255.31761297 -246.06170702 254.02886892 -242.1171875 252.6953125 C-239.10160856 251.70495632 -236.05892067 250.84608444 -233 250 C-232.67 250.66 -232.34 251.32 -232 252 C-239.75022002 255.09501421 -247.45527133 257.82881737 -255.515625 260.0078125 C-256.33546875 260.33523438 -257.1553125 260.66265625 -258 261 C-258.33 261.99 -258.66 262.98 -259 264 C-258.34 264 -257.68 264 -257 264 C-257 264.66 -257 265.32 -257 266 C-256.41677979 266.11843262 -255.83355957 266.23686523 -255.23266602 266.35888672 C-252.89039203 267.03147409 -251.30355313 267.91716663 -249.27734375 269.2578125 C-248.57923584 269.71526855 -247.88112793 270.17272461 -247.16186523 270.64404297 C-246.06080444 271.3771167 -246.06080444 271.3771167 -244.9375 272.125 C-243.40644838 273.13051046 -241.87519833 274.13571885 -240.34375 275.140625 C-239.22806641 275.87635742 -239.22806641 275.87635742 -238.08984375 276.62695312 C-231.82051692 280.74595945 -225.46028637 284.72714303 -219.08984375 288.6875 C-217.51329161 289.67763368 -215.94423541 290.67971729 -214.37890625 291.6875 C-209.45658689 294.85526169 -204.52992749 297.90989837 -199.36328125 300.6640625 C-197.28715914 301.83767203 -195.30788668 303.08707253 -193.3046875 304.37890625 C-182.61659334 311.08331262 -169.8519864 317.35939452 -157 315 C-153.4436007 313.68796267 -153.4436007 313.68796267 -151 312 C-150.34 312 -149.68 312 -149 312 C-148.67 311.01 -148.34 310.02 -148 309 C-147.34 309 -146.68 309 -146 309 C-145.74089844 308.31550781 -145.48179687 307.63101562 -145.21484375 306.92578125 C-143.32524183 302.37493933 -141.00499747 298.04860199 -138.75390625 293.66796875 C-137.51234136 291.16930675 -136.4720419 288.66642781 -135.5234375 286.04296875 C-134.01586081 281.8937532 -132.09265343 278.03937008 -130.0625 274.125 C-127.41312021 268.93190342 -124.99658187 263.76493138 -122.9375 258.3046875 C-121.87666734 255.69680722 -120.61555834 253.24506058 -119.3125 250.75 C-117.44331902 247.1313112 -116.52127798 244.06596828 -116 240 C-115.34 239.67 -114.68 239.34 -114 239 C-113.0393994 237.03131846 -113.0393994 237.03131846 -112.1875 234.625 C-110.34119256 229.79406022 -108.2534134 225.12334859 -106.05078125 220.4453125 C-105.1249022 218.29066459 -104.48421702 216.28805844 -104 214 C-103.34 214 -102.68 214 -102 214 C-101.9071875 213.1646875 -101.9071875 213.1646875 -101.8125 212.3125 C-100.66587721 209.04903513 -98.48044843 207.35945094 -96 205 C-93.96956315 201.95434472 -93.75746085 201.08703211 -93.5625 197.625 C-93.20345804 193.66271552 -92.29624831 191.30659757 -90 188 C-89.3251035 186.33664888 -88.66029293 184.66920205 -88 183 C-86.86733932 180.5136051 -85.72374905 178.03539341 -84.5625 175.5625 C-84.26279297 174.91990234 -83.96308594 174.27730469 -83.65429688 173.61523438 C-81.82796392 169.71298283 -79.94362863 165.84565054 -78 162 C-77.34 162 -76.68 162 -76 162 C-76.2475 161.484375 -76.495 160.96875 -76.75 160.4375 C-77.08382681 157.18268862 -75.72163211 155.42294489 -74.04296875 152.71875 C-72.74009219 150.5716875 -71.91233707 148.33786373 -71 146 C-68.90452037 141.29932947 -66.98077801 137.41209543 -63 134 C-63.66 133.34 -64.32 132.68 -65 132 C-64.566875 131.154375 -64.13375 130.30875 -63.6875 129.4375 C-62.55767799 127.13601072 -61.49492175 124.80043915 -60.5 122.4375 C-59 119 -59 119 -57.4375 116.4375 C-55.82216525 113.69845413 -54.94692003 111.0301441 -54 108 C-51.63419602 101.84890964 -48.94612497 95.89224994 -46 90 C-44.39641164 86.39192619 -42.90597276 82.77338962 -41.5625 79.0625 C-40.27048455 75.55365805 -38.69991314 72.26690257 -36.96484375 68.95703125 C-35.46694621 65.91878563 -34.29552035 62.76115115 -33.0703125 59.60546875 C-27.96530389 46.54761616 -27.96530389 46.54761616 -24.3125 41.8125 C-22.82381303 40.03280561 -22.82381303 40.03280561 -22.5625 37.5625 C-21.83933173 34.26806676 -20.20903411 32.49407077 -18 30 C-18.66 29.67 -19.32 29.34 -20 29 C-19.34 27.68 -18.68 26.36 -18 25 C-17.34 25 -16.68 25 -16 25 C-16 24.34 -16 23.68 -16 23 C-15.34 22.67 -14.68 22.34 -14 22 C-14.33 21.01 -14.66 20.02 -15 19 C-14 16 -14 16 -11 14 C-11 12.68 -11 11.36 -11 10 C-7.71698265 6.23418598 -3.86540735 3.14626179 0 0 Z " fill="#298D81" transform="translate(657,252)"/>
<path d="M0 0 C10.23 0 20.46 0 31 0 C31 10.23 31 20.46 31 31 C20.77 31 10.54 31 0 31 C0 20.77 0 10.54 0 0 Z " fill="#14A4E4" transform="translate(670,206)"/>
<path d="M0 0 C9.24 0 18.48 0 28 0 C28 9.57 28 19.14 28 29 C18.76 29 9.52 29 0 29 C0 19.43 0 9.86 0 0 Z " fill="#1BA6B2" transform="translate(637,176)"/>
<path d="M0 0 C8.91 0 17.82 0 27 0 C27 9.24 27 18.48 27 28 C18.09 28 9.18 28 0 28 C0 18.76 0 9.52 0 0 Z " fill="#4FB28E" transform="translate(686,161)"/>
<path d="M0 0 C9.24 0 18.48 0 28 0 C28 5.61 28 11.22 28 17 C27.34 16.01 26.68 15.02 26 14 C25.401875 14.20625 24.80375 14.4125 24.1875 14.625 C22 15 22 15 19 13 C19 13.66 19 14.32 19 15 C17.35 15 15.7 15 14 15 C14 14.34 14 13.68 14 13 C13.0925 13.37125 12.185 13.7425 11.25 14.125 C8 15 8 15 5.75 14.125 C5.1725 13.75375 4.595 13.3825 4 13 C3.34 13 2.68 13 2 13 C1.67 18.28 1.34 23.56 1 29 C0.67 29 0.34 29 0 29 C0 19.43 0 9.86 0 0 Z " fill="#51C084" transform="translate(637,176)"/>
<path d="M0 0 C3.36179774 1.44077046 5.59156268 3.24750021 8 6 C8 6.66 8 7.32 8 8 C7.34 8 6.68 8 6 8 C6.33 9.32 6.66 10.64 7 12 C7.66 12 8.32 12 9 12 C10.55078125 13.57421875 10.55078125 13.57421875 12.3125 15.6875 C15.80970793 19.79291801 19.29683336 23.67069921 23.5625 27 C26.12758972 29.104689 28.01420997 31.35227996 30 34 C32.475 33.505 32.475 33.505 35 33 C35.495 34.98 35.495 34.98 36 37 C36.66 37 37.32 37 38 37 C38 37.66 38 38.32 38 39 C38.804375 39.268125 39.60875 39.53625 40.4375 39.8125 C41.283125 40.204375 42.12875 40.59625 43 41 C43.33 41.99 43.66 42.98 44 44 C44.99 44.33 45.98 44.66 47 45 C50.33460985 48.0781014 53.3238643 51.33270293 56 55 C56 55.66 56 56.32 56 57 C57.32 57.66 58.64 58.32 60 59 C60 59.66 60 60.32 60 61 C60.66 61 61.32 61 62 61 C62.33 61.66 62.66 62.32 63 63 C63.99 63.433125 63.99 63.433125 65 63.875 C67 65 67 65 67.75 67.125 C67.8325 67.74375 67.915 68.3625 68 69 C70.46800047 67.84826645 72.04783565 66.95216435 74 65 C73.50384615 69.58942308 73.50384615 69.58942308 70.953125 71.66796875 C70.30859375 72.10753906 69.6640625 72.54710937 69 73 C61.2381082 66.50720583 53.72540552 59.95801698 46.6953125 52.66796875 C44.70916357 50.70196916 42.74429468 48.91064448 40.62109375 47.109375 C34.43763296 41.75332984 28.73581387 35.88440482 22.96362305 30.09399414 C20.94235732 28.0673702 18.91580426 26.04614453 16.88867188 24.02539062 C1.81786285 8.96524791 1.81786285 8.96524791 -1 5 C-1 4.34 -1 3.68 -1 3 C-0.34 3 0.32 3 1 3 C0.67 2.01 0.34 1.02 0 0 Z " fill="#0E4EBC" transform="translate(402,397)"/>
<path d="M0 0 C0.66 1.32 1.32 2.64 2 4 C2.66 4 3.32 4 4 4 C4.33 2.68 4.66 1.36 5 0 C5.28875 0.94875 5.5775 1.8975 5.875 2.875 C6.76825109 6.05211578 6.76825109 6.05211578 9 8 C9.37309899 9.65821773 9.70700977 11.32577014 10 13 C10.33 13.66 10.66 14.32 11 15 C10.5625 17.125 10.5625 17.125 10 19 C10.66 19 11.32 19 12 19 C12.33 18.34 12.66 17.68 13 17 C14.33332095 19.6666419 13.67102033 21.16680303 13 24 C13.66 24 14.32 24 15 24 C16.4606285 26.64738916 17 27.89448334 17 31 C17.66 31 18.32 31 19 31 C19.33 32.98 19.66 34.96 20 37 C20.66 37 21.32 37 22 37 C22.33 38.32 22.66 39.64 23 41 C23.66 41 24.32 41 25 41 C25.84454356 44.37817425 26.10844919 46.67465243 25 50 C25.66 50 26.32 50 27 50 C28.76462683 53.08809695 29 54.23312136 29 58 C29.66 58.33 30.32 58.66 31 59 C31.4140625 61.06640625 31.4140625 61.06640625 31.625 63.5625 C31.69976562 64.38878906 31.77453125 65.21507812 31.8515625 66.06640625 C31.90054688 66.70449219 31.94953125 67.34257812 32 68 C30.515 68.495 30.515 68.495 29 69 C26.66312316 65.34905328 25.04825114 61.75504821 23.5625 57.6875 C22.18865443 54.02527883 20.82301729 50.46151866 19 47 C17.23191735 43.6342523 15.89459687 40.185558 14.5625 36.625 C12.73653912 31.76693894 10.65183391 27.21646274 8.26171875 22.6171875 C6.26704466 18.47962825 4.70569869 14.18804533 3.11328125 9.8828125 C2.08945836 7.07178905 2.08945836 7.07178905 0.85546875 4.8046875 C0 3 0 3 0 0 Z " fill="#1CC0FB" transform="translate(130,287)"/>
<path d="M0 0 C4.02415313 0.57487902 6.55030181 1.91413598 10 4 C11.26158831 4.50300396 12.53357012 4.98038248 13.8125 5.4375 C17.44652103 6.73831435 20.82077509 8.34434071 24.23828125 10.1328125 C26.16239316 11.12927192 26.16239316 11.12927192 29 12 C29 12.66 29 13.32 29 14 C29.94875 14.226875 30.8975 14.45375 31.875 14.6875 C36.09197001 15.87271764 39.81074617 17.83184482 43.66796875 19.87890625 C45.79468734 20.9012986 47.69710012 21.52883198 50 22 C50 22.66 50 23.32 50 24 C50.515625 24.103125 51.03125 24.20625 51.5625 24.3125 C58.60229851 26.2980842 65.27934598 29.95040226 71.875 33.0625 C72.83664063 33.50916016 73.79828125 33.95582031 74.7890625 34.41601562 C76.15804687 35.06280273 76.15804687 35.06280273 77.5546875 35.72265625 C78.38468262 36.11203369 79.21467773 36.50141113 80.06982422 36.90258789 C82 38 82 38 83 40 C70.40950792 40.24687239 70.40950792 40.24687239 67.375 37.5625 C66.694375 36.7890625 66.694375 36.7890625 66 36 C64.515 35.01 64.515 35.01 63 34 C62.01 34.495 62.01 34.495 61 35 C60.67 34.34 60.34 33.68 60 33 C59.01 32.67 58.02 32.34 57 32 C57 31.34 57 30.68 57 30 C56.34 29.9175 55.68 29.835 55 29.75 C50.99547149 28.74886787 47.63772634 26.91636231 44 25 C39.40465469 22.61179991 34.98371493 20.49511448 30 19 C30 17.68 30 16.36 30 15 C28.9275 15.2475 27.855 15.495 26.75 15.75 C25.5125 15.8325 24.275 15.915 23 16 C20.875 14.125 20.875 14.125 19 12 C17.33985384 11.63557767 15.67293936 11.30027117 14 11 C13 10 12 9 11 8 C8.47266765 7.34444881 8.47266765 7.34444881 6 7 C5.34 6.67 4.68 6.34 4 6 C3.375 3.9375 3.375 3.9375 3 2 C2.01 2.33 1.02 2.66 0 3 C0 2.01 0 1.02 0 0 Z " fill="#38D3FE" transform="translate(122,224)"/>
<path d="M0 0 C8.91 0 17.82 0 27 0 C27 4.62 27 9.24 27 14 C26.34 13.01 25.68 12.02 25 11 C24.01 12.485 24.01 12.485 23 14 C22.31550781 13.69320312 21.63101563 13.38640625 20.92578125 13.0703125 C17.67122494 11.87972715 14.61620914 11.35986796 11.1875 10.875 C9.44533203 10.62363281 9.44533203 10.62363281 7.66796875 10.3671875 C6.78753906 10.24601563 5.90710938 10.12484375 5 10 C5.33 10.99 5.66 11.98 6 13 C5.01 13.495 5.01 13.495 4 14 C4 13.34 4 12.68 4 12 C2.68 12.33 1.36 12.66 0 13 C0 8.71 0 4.42 0 0 Z " fill="#73C657" transform="translate(686,161)"/>
<path d="M0 0 C0.99 0.33 1.98 0.66 3 1 C3.33 3.64 3.66 6.28 4 9 C4.66 9 5.32 9 6 9 C6.1953125 11.05078125 6.390625 13.1015625 6.5859375 15.15234375 C6.72257813 15.76207031 6.85921875 16.37179687 7 17 C7.66 17.33 8.32 17.66 9 18 C9 18.99 9 19.98 9 21 C9.66 21.33 10.32 21.66 11 22 C10.91621094 22.60328125 10.83242187 23.2065625 10.74609375 23.828125 C10.64425781 24.62734375 10.54242188 25.4265625 10.4375 26.25 C10.33308594 27.03890625 10.22867188 27.8278125 10.12109375 28.640625 C9.99972651 31.00532874 10.30366743 32.7511037 11 35 C11.66 35 12.32 35 13 35 C13.33 34.34 13.66 33.68 14 33 C16.99895902 35.47740093 17.25431442 37.27157211 18 41 C19.02554183 43.05108367 20.11587994 45.04661851 21.2578125 47.03515625 C22.16223819 49.42950426 21.8356927 50.62515175 21 53 C21 52.34 21 51.68 21 51 C20.34 51 19.68 51 19 51 C19.33 52.98 19.66 54.96 20 57 C17.30840169 54.30840169 16.15413459 51.125941 14.6640625 47.68359375 C14.34343842 46.95310318 14.02281433 46.22261261 13.69247437 45.46998596 C12.66557471 43.12772485 11.64517401 40.78269719 10.625 38.4375 C9.61250737 36.12271405 8.59872858 33.80849425 7.5848999 31.49429321 C6.93339331 30.00475689 6.28351026 28.51450931 5.63531494 27.02352905 C3.97783081 23.21235848 2.27610661 19.42878089 0.5234375 15.66015625 C-1 12 -1 12 -1 8 C-0.34 8 0.32 8 1 8 C0.67 5.36 0.34 2.72 0 0 Z " fill="#0FA7ED" transform="translate(161,347)"/>
<path d="M0 0 C2 0 2 0 3.69140625 1.6796875 C4.61759766 2.76636719 4.61759766 2.76636719 5.5625 3.875 C6.18253906 4.59429687 6.80257812 5.31359375 7.44140625 6.0546875 C9 8 9 8 10 10 C6.20411134 9.45773019 4.52788007 7.79872437 2 5 C-4.7102803 9.61097473 -13.30439255 15.60878509 -17 23 C-17.66 23 -18.32 23 -19 23 C-19.26264648 23.59079346 -19.52529297 24.18158691 -19.79589844 24.7902832 C-21.05843791 27.10724281 -22.35823229 28.54535413 -24.265625 30.35546875 C-24.90580566 30.97397705 -25.54598633 31.59248535 -26.20556641 32.22973633 C-26.88022949 32.87579834 -27.55489258 33.52186035 -28.25 34.1875 C-33.10237751 38.90550222 -37.49314906 43.34362856 -40.7265625 49.36328125 C-42.44860457 51.57658071 -44.43226584 51.98204714 -47 53 C-47.33 53.99 -47.66 54.98 -48 56 C-50.0625 56.6875 -50.0625 56.6875 -52 57 C-52 57.66 -52 58.32 -52 59 C-52.66 58.67 -53.32 58.34 -54 58 C-50.47018764 53.85247047 -46.88266149 49.8219949 -43 46 C-39.90014349 42.94139633 -37.02332139 39.77455013 -34.1875 36.47265625 C-30.56965257 32.38319656 -26.81026156 28.42466768 -23.06201172 24.45483398 C-20.38347503 21.60623738 -17.75844035 18.75230092 -15.28515625 15.72265625 C-13.45148623 13.53792462 -11.78251418 11.81402198 -9.5625 10.0625 C-6.3737308 7.43768343 -3.81829789 4.55631131 -1.26171875 1.3203125 C-0.63716797 0.66675781 -0.63716797 0.66675781 0 0 Z " fill="#28B8F2" transform="translate(387,273)"/>
<path d="M0 0 C1.1240625 -0.00257813 2.248125 -0.00515625 3.40625 -0.0078125 C5.98792004 0.10301677 8.0253318 0.50633295 10.5 1.125 C11.16 0.795 11.82 0.465 12.5 0.125 C12.83 3.095 13.16 6.065 13.5 9.125 C5.25 9.125 -3 9.125 -11.5 9.125 C-11.17 6.485 -10.84 3.845 -10.5 1.125 C-6.96994485 0.03483591 -3.68121037 -0.00844314 0 0 Z " fill="#27AC8D" transform="translate(698.5,178.875)"/>
<path d="M0 0 C0.33 0 0.66 0 1 0 C1 3.96 1 7.92 1 12 C2.3509375 11.57847656 3.701875 11.15695312 5.09375 10.72265625 C6.89572673 10.16892382 8.69781611 9.61555784 10.5 9.0625 C11.386875 8.78470703 12.27375 8.50691406 13.1875 8.22070312 C18.48233455 6.60499994 23.48543111 5.50893802 29 5 C27.84414715 8.91211733 26.64465038 11.8745041 24 15 C24 12.69 24 10.38 24 8 C19.57968557 10.27330457 17.06550709 13.12778052 14 17 C13.01709032 18.01680311 12.02665213 19.02738219 11 20 C11.99 20.33 12.98 20.66 14 21 C12.35 21.66 10.7 22.32 9 23 C9.33 25.31 9.66 27.62 10 30 C9.01 30 8.02 30 7 30 C7 30.66 7 31.32 7 32 C5.515 32.495 5.515 32.495 4 33 C4.56667782 28.60824692 6.29232799 25.09423017 8.2578125 21.18359375 C9.11277626 18.66820037 8.88294913 17.46443397 8 15 C6.3603125 15.061875 6.3603125 15.061875 4.6875 15.125 C1 15 1 15 -2 13 C-2.46271324 8.18778226 -1.74817615 4.47970138 0 0 Z " fill="#95D23E" transform="translate(634,245)"/>
<path d="M0 0 C0.54046516 5.58480661 -1.52617291 11.05234582 -4 16 C-4.22467831 17.53668865 -4.40796805 19.07968054 -4.5625 20.625 C-4.64628906 21.44226563 -4.73007812 22.25953125 -4.81640625 23.1015625 C-4.90728516 24.04128906 -4.90728516 24.04128906 -5 25 C-5.66 24.67 -6.32 24.34 -7 24 C-6.47594437 17.30992818 -5.89536075 10.6512513 -5 4 C-5.495 4.165 -5.99 4.33 -6.5 4.5 C-9 5 -9 5 -12.8125 4.9375 C-17.86790911 4.8717233 -22.17143605 6.22793967 -26.8125 8.1875 C-27.534375 8.455625 -28.25625 8.72375 -29 9 C-29.66 8.67 -30.32 8.34 -31 8 C-32.67293936 8.30027117 -34.33985384 8.63557767 -36 9 C-36.99 9 -37.98 9 -39 9 C-39.33 9.66 -39.66 10.32 -40 11 C-41.97509143 11.23042733 -43.95078948 11.45729108 -45.9296875 11.65234375 C-48.7443545 12.12499538 -50.68981758 13.36928299 -53 15 C-53.99 15.495 -53.99 15.495 -55 16 C-54.67 14.35 -54.34 12.7 -54 11 C-44.05223321 8.40422941 -34.04961302 6.03571047 -24.0305481 3.73269653 C-22.64213465 3.4125021 -21.25432623 3.08967203 -19.86715698 2.76412964 C-17.88054145 2.29874399 -15.8918322 1.84355062 -13.90234375 1.390625 C-12.74210693 1.12282227 -11.58187012 0.85501953 -10.38647461 0.57910156 C-6.86060688 -0.02383682 -3.56999927 -0.10111542 0 0 Z " fill="#CAE64C" transform="translate(641,220)"/>
<path d="M0 0 C0.66 0.99 1.32 1.98 2 3 C0.6875 5.625 -0.625 8.25 -1.9375 10.875 C-2.45957031 11.92494141 -2.45957031 11.92494141 -2.9921875 12.99609375 C-3.82637976 14.65477836 -4.69059786 16.29832399 -5.5625 17.9375 C-6.73476896 20.43494257 -7.60585442 22.75934052 -8.4375 25.375 C-9.64956839 29.15716105 -11.19130838 32.57243556 -13.0234375 36.08984375 C-14.92482188 39.80895159 -16.48205081 43.67275521 -18 47.5625 C-19 50 -19 50 -20.5625 53.0625 C-22.02705634 55.78798732 -22.02705634 55.78798732 -22.5 58.0625 C-23.18117117 60.7020383 -24.56047777 62.69676443 -26 65 C-26.69937532 66.31647119 -27.36729133 67.65022151 -28 69 C-28.61875 70.2684375 -28.61875 70.2684375 -29.25 71.5625 C-29.4975 72.366875 -29.745 73.17125 -30 74 C-29.34 74.99 -28.68 75.98 -28 77 C-28.86625 77.495 -28.86625 77.495 -29.75 78 C-32.50438304 80.44834048 -33.59365471 82.92617963 -35.0703125 86.2578125 C-36 88 -36 88 -38 89 C-36.5 84.5 -36.5 84.5 -35 80 C-34.69449219 79.03320312 -34.38898437 78.06640625 -34.07421875 77.0703125 C-32.97032028 73.91516995 -31.64384812 71.00855713 -30.1875 68 C-26.61507035 60.49216657 -23.278208 52.88149134 -19.96304321 45.25756836 C-19.36249426 43.87709336 -18.76058446 42.49720958 -18.15731812 41.11791992 C-17.30025916 39.15707872 -16.44822004 37.19413463 -15.59765625 35.23046875 C-14.84754272 33.50413208 -14.84754272 33.50413208 -14.08227539 31.74291992 C-12.87765577 29.18138342 -12.87765577 29.18138342 -13 27 C-12.34 27 -11.68 27 -11 27 C-10.86464844 26.46375 -10.72929688 25.9275 -10.58984375 25.375 C-8.97820144 19.50746393 -6.8158849 13.99891553 -4.375 8.4375 C-4.06167725 7.72271484 -3.74835449 7.00792969 -3.42553711 6.27148438 C-1.13999589 1.13999589 -1.13999589 1.13999589 0 0 Z " fill="#63C15A" transform="translate(623,310)"/>
<path d="M0 0 C0.66 0.99 1.32 1.98 2 3 C1.60167969 3.64066406 1.20335937 4.28132813 0.79296875 4.94140625 C0.26316406 5.80636719 -0.26664062 6.67132813 -0.8125 7.5625 C-1.33457031 8.40941406 -1.85664063 9.25632812 -2.39453125 10.12890625 C-4.18751514 13.3353373 -5.5679936 16.61756463 -7 20 C-8.25301009 22.60308195 -9.56402858 25.17571745 -10.875 27.75 C-13.66379935 33.27158083 -16.32154715 38.82681662 -18.8515625 44.47265625 C-21.79725681 50.95518761 -24.87042819 57.18801004 -29 63 C-30 60 -30 60 -28.9609375 57.46875 C-28.43757813 56.4890625 -27.91421875 55.509375 -27.375 54.5 C-24.33952712 48.76804106 -21.66446597 42.91308987 -19 37 C-17.12391172 32.87784859 -15.2383828 28.76016536 -13.34326172 24.64672852 C-12.77904801 23.41947387 -12.21688669 22.19127367 -11.65673828 20.9621582 C-3.85803963 3.85803963 -3.85803963 3.85803963 0 0 Z " fill="#33B171" transform="translate(508,399)"/>
<path d="M0 0 C4.95868387 4.13645313 9.56788968 8.43039568 14 13.125 C14.59683594 13.73214844 15.19367188 14.33929688 15.80859375 14.96484375 C16.36675781 15.55652344 16.92492187 16.14820313 17.5 16.7578125 C18.0053125 17.2852002 18.510625 17.81258789 19.03125 18.35595703 C20 20 20 20 19.79907227 21.89111328 C18.87873399 24.32004149 17.84236087 26.64370654 16.71484375 28.984375 C16.26689453 29.91894531 15.81894531 30.85351562 15.35742188 31.81640625 C14.88884766 32.78449219 14.42027344 33.75257813 13.9375 34.75 C13.46505859 35.73355469 12.99261719 36.71710938 12.50585938 37.73046875 C11.34054629 40.15526162 10.17181907 42.57834631 9 45 C8.34 43.68 7.68 42.36 7 41 C7.474375 40.59523438 7.94875 40.19046875 8.4375 39.7734375 C10.28568621 37.67574615 10.55234442 36.35756427 11 33.625 C11.57220446 30.59769608 12.0179446 28.97142157 13.6875 26.3125 C15.27096623 23.98097304 15.27096623 23.98097304 14.9375 20.8125 C14.30226968 17.88449138 14.30226968 17.88449138 12 16.8125 C11.34 16.544375 10.68 16.27625 10 16 C9.67 15.01 9.34 14.02 9 13 C6.99983534 11.79117904 6.99983534 11.79117904 5 11 C5 10.34 5 9.68 5 9 C4.360625 8.690625 3.72125 8.38125 3.0625 8.0625 C1 7 1 7 0 6 C-0.04080783 4.00041636 -0.04254356 1.99954746 0 0 Z " fill="#164EB7" transform="translate(487,378)"/>
<path d="M0 0 C5.33335103 1.77778368 8.75101883 6.54769247 12 11 C12 11.66 12 12.32 12 13 C13.32 13.66 14.64 14.32 16 15 C16 15.66 16 16.32 16 17 C16.66 17 17.32 17 18 17 C18.33 17.66 18.66 18.32 19 19 C19.99 19.433125 19.99 19.433125 21 19.875 C23 21 23 21 23.75 23.125 C23.87375 24.053125 23.87375 24.053125 24 25 C26.46800047 23.84826645 28.04783565 22.95216435 30 21 C29.50384615 25.58942308 29.50384615 25.58942308 26.953125 27.66796875 C26.30859375 28.10753906 25.6640625 28.54710937 25 29 C15.88725287 21.39705713 7.25550073 13.5276601 -1 5 C-0.01 4.67 0.98 4.34 2 4 C2 3.34 2 2.68 2 2 C1.34 2 0.68 2 0 2 C0 1.34 0 0.68 0 0 Z " fill="#0548BB" transform="translate(446,441)"/>
<path d="M0 0 C0.66 0 1.32 0 2 0 C2 0.99 2 1.98 2 3 C1.34 3 0.68 3 0 3 C0.33 3.99 0.66 4.98 1 6 C0.3503125 6.5878125 0.3503125 6.5878125 -0.3125 7.1875 C-2.13858339 9.01043451 -2.13858339 9.01043451 -3.5 11.625 C-5 14 -5 14 -8 15 C-8.72455635 16.64232772 -9.37774395 18.31624835 -10 20 C-11.6335046 22.94030828 -13.30119481 25.84579367 -15.04296875 28.72265625 C-17.58995947 33.00667513 -19.34898852 37.29461728 -21 42 C-19.02 42 -17.04 42 -15 42 C-14.67 41.34 -14.34 40.68 -14 40 C-14 40.99 -14 41.98 -14 43 C-19.94 45.475 -19.94 45.475 -26 48 C-25.14937251 42.89623504 -23.98042536 39.2970841 -21.6875 34.8125 C-21.34356201 34.13195557 -20.99962402 33.45141113 -20.64526367 32.75024414 C-16.01913956 23.8251973 -10.57291966 15.35840826 -5 7 C-4.5364209 6.30277832 -4.0728418 5.60555664 -3.59521484 4.88720703 C-2.45194639 3.21898118 -1.23276107 1.60322812 0 0 Z " fill="#1C5A84" transform="translate(300,540)"/>
<path d="M0 0 C0.66 0.33 1.32 0.66 2 1 C0.02 1.99 0.02 1.99 -2 3 C-1.34 2.01 -0.68 1.02 0 0 Z M-6 4 C-5.01 4.33 -4.02 4.66 -3 5 C-0.85744207 4.61067144 -0.85744207 4.61067144 1 4 C1.33 4.99 1.66 5.98 2 7 C-1.42795597 9.03736586 -4.86875165 11.05196199 -8.3125 13.0625 C-9.28896484 13.64322266 -10.26542969 14.22394531 -11.27148438 14.82226562 C-12.20927734 15.36689453 -13.14707031 15.91152344 -14.11328125 16.47265625 C-14.97735596 16.98062744 -15.84143066 17.48859863 -16.73168945 18.01196289 C-19 19 -19 19 -22 18 C-21.34 18 -20.68 18 -20 18 C-20.33 16.35 -20.66 14.7 -21 13 C-19.68 12.67 -18.36 12.34 -17 12 C-17 11.34 -17 10.68 -17 10 C-15.9275 9.566875 -14.855 9.13375 -13.75 8.6875 C-11.40739828 7.70039565 -9.78149044 6.83004812 -7.75 5.25 C-6.88375 4.63125 -6.88375 4.63125 -6 4 Z " fill="#127796" transform="translate(370,530)"/>
<path d="M0 0 C0.66 1.32 1.32 2.64 2 4 C2.66 4 3.32 4 4 4 C4.33 2.68 4.66 1.36 5 0 C5.28875 0.94875 5.5775 1.8975 5.875 2.875 C6.76825109 6.05211578 6.76825109 6.05211578 9 8 C9.37309899 9.65821773 9.70700977 11.32577014 10 13 C10.33 13.66 10.66 14.32 11 15 C10.5625 17.125 10.5625 17.125 10 19 C10.66 19 11.32 19 12 19 C12.33 18.34 12.66 17.68 13 17 C14.33332095 19.6666419 13.67102033 21.16680303 13 24 C13.66 24 14.32 24 15 24 C15.33 24.99 15.66 25.98 16 27 C15.34 27 14.68 27 14 27 C13.67 27.99 13.34 28.98 13 30 C9.9279614 27.44292741 8.95680935 24.71834021 7.625 21 C5.63916455 15.60383923 3.41468706 10.41999716 0.91796875 5.2421875 C0 3 0 3 0 0 Z " fill="#2BCCFE" transform="translate(130,287)"/>
<path d="M0 0 C1.3718655 4.11559651 -0.26207473 6.45835941 -2 10.1875 C-2.65504992 11.63927689 -3.30999496 13.09110112 -3.96484375 14.54296875 C-4.30370605 15.28466309 -4.64256836 16.02635742 -4.99169922 16.79052734 C-6.53982622 20.18291218 -8.05805806 23.58804242 -9.5625 27 C-9.8510083 27.65315186 -10.1395166 28.30630371 -10.43676758 28.97924805 C-12.81194538 34.42378361 -14.88952015 39.9580838 -16.93286133 45.53393555 C-19.10171962 51.40170181 -21.52151755 56.78227632 -25 62 C-24.67 58.7 -24.34 55.4 -24 52 C-22.515 51.505 -22.515 51.505 -21 51 C-20.89042969 50.25234375 -20.78085937 49.5046875 -20.66796875 48.734375 C-20.50941406 47.74953125 -20.35085938 46.7646875 -20.1875 45.75 C-20.03667969 44.77546875 -19.88585937 43.8009375 -19.73046875 42.796875 C-18.96014721 39.84740858 -17.89482779 38.33829812 -16 36 C-15.28566879 33.35065178 -15.28566879 33.35065178 -15 31 C-14.34 31 -13.68 31 -13 31 C-12.67 28.69 -12.34 26.38 -12 24 C-11.01 23.67 -10.02 23.34 -9 23 C-8.87625 22.278125 -8.7525 21.55625 -8.625 20.8125 C-7.8149739 17.16738255 -6.39400554 13.92707186 -4.9375 10.5 C-4.00249669 8.00665785 -3.44920549 5.62036533 -3 3 C-2.34 3 -1.68 3 -1 3 C-0.67 2.01 -0.34 1.02 0 0 Z " fill="#43B275" transform="translate(592,415)"/>
<path d="M0 0 C3.86705905 1.5807661 6.49405009 4.20399259 9.38671875 7.12109375 C9.88919632 7.62165787 10.39167389 8.12222198 10.90937805 8.63795471 C11.96654078 9.69376045 13.02119807 10.7520801 14.07348633 11.81274414 C15.68548573 13.43547232 17.30789939 15.04723371 18.93164062 16.65820312 C19.95897541 17.68685915 20.98568981 18.71613521 22.01171875 19.74609375 C22.49710617 20.22743271 22.98249359 20.70877167 23.48258972 21.20469666 C25.72418338 23.47787022 26.97384335 24.92153005 28 28 C27.34 28 26.68 28 26 28 C26 27.34 26 26.68 26 26 C25.34 26 24.68 26 24 26 C23.67 26.66 23.34 27.32 23 28 C23 27.34 23 26.68 23 26 C22.01 26.33 21.02 26.66 20 27 C19.34 25.35 18.68 23.7 18 22 C17.34 22 16.68 22 16 22 C16 21.34 16 20.68 16 20 C15.34 20 14.68 20 14 20 C14 19.34 14 18.68 14 18 C13.01 17.67 12.02 17.34 11 17 C10.36380203 15.09140609 9.72787978 13.18271956 9.09375 11.2734375 C7.35257225 7.65427519 4.568649 5.25870205 1.64453125 2.56640625 C1.10183594 2.04949219 0.55914062 1.53257812 0 1 C0 0.67 0 0.34 0 0 Z " fill="#0F59C4" transform="translate(459,350)"/>
<path d="M0 0 C0.33 0.66 0.66 1.32 1 2 C1.66 2 2.32 2 3 2 C3 3.65 3 5.3 3 7 C4.32 7.33 5.64 7.66 7 8 C7 8.66 7 9.32 7 10 C6.34 10 5.68 10 5 10 C4.67 11.32 4.34 12.64 4 14 C6.97 14.495 6.97 14.495 10 15 C9.814375 15.886875 9.62875 16.77375 9.4375 17.6875 C9.01051453 20.92038998 9.00152589 22.9213715 10 26 C11.4579186 27.79385992 11.4579186 27.79385992 13 29 C12.34 29.66 11.68 30.32 11 31 C6.65396058 27.19365966 4.99824563 21.75442317 2.75 16.5625 C2.27820313 15.51255859 1.80640625 14.46261719 1.3203125 13.38085938 C0.87945312 12.36958984 0.43859375 11.35832031 -0.015625 10.31640625 C-0.42071289 9.39287354 -0.82580078 8.46934082 -1.24316406 7.51782227 C-2.05663132 4.81160038 -2.0297628 3.59528057 -1 1 C-0.67 0.67 -0.34 0.34 0 0 Z " fill="#056AC4" transform="translate(206,452)"/>
<path d="M0 0 C0.66 0 1.32 0 2 0 C0.86792801 3.80787853 -0.59959227 7.30374898 -2.3125 10.875 C-10.53079765 28.79040403 -13.3442299 47.46257367 -14 67 C-14.66 66.67 -15.32 66.34 -16 66 C-16.574856 48.79690202 -13.8617462 34.14677328 -8 18 C-7.60039062 16.88367188 -7.20078125 15.76734375 -6.7890625 14.6171875 C-5.87170645 12.07331362 -4.94315404 9.53439716 -4 7 C-3.34 7 -2.68 7 -2 7 C-1.855625 6.21625 -1.71125 5.4325 -1.5625 4.625 C-1 2 -1 2 0 0 Z " fill="#0373CB" transform="translate(251,429)"/>
<path d="M0 0 C4.02415313 0.57487902 6.55030181 1.91413598 10 4 C11.26158831 4.50300396 12.53357012 4.98038248 13.8125 5.4375 C17.44652103 6.73831435 20.82077509 8.34434071 24.23828125 10.1328125 C26.16239316 11.12927192 26.16239316 11.12927192 29 12 C29 12.66 29 13.32 29 14 C31.97 14.495 31.97 14.495 35 15 C35 15.33 35 15.66 35 16 C33.08458862 16.10841951 31.16740227 16.18578079 29.25 16.25 C27.64898437 16.31960937 27.64898437 16.31960937 26.015625 16.390625 C22.32140468 15.91209905 21.39885429 14.73776527 19 12 C17.33985384 11.63557767 15.67293936 11.30027117 14 11 C13 10 12 9 11 8 C8.47266765 7.34444881 8.47266765 7.34444881 6 7 C5.34 6.67 4.68 6.34 4 6 C3.375 3.9375 3.375 3.9375 3 2 C2.01 2.33 1.02 2.66 0 3 C0 2.01 0 1.02 0 0 Z " fill="#44D3FE" transform="translate(122,224)"/>
<path d="M0 0 C0.66 0 1.32 0 2 0 C0.84615423 5.14792729 -0.55241538 9.30063753 -3 14 C-3.69146414 15.84390438 -4.3811268 17.68854311 -5.0546875 19.5390625 C-6.73709167 23.91887502 -8.64649128 28.2034414 -10.51171875 32.5078125 C-12.14593332 36.34242621 -13.66867416 40.20999647 -15.140625 44.109375 C-16 46 -16 46 -18 48 C-18 45.69 -18 43.38 -18 41 C-16.515 40.505 -16.515 40.505 -15 40 C-14.06075374 36.53340995 -13.53044281 33.0572536 -12.94140625 29.515625 C-11.92836187 25.73247171 -10.56575322 23.89534602 -8 21 C-6.78982546 18.00641036 -6.04399625 15.39596629 -5.6875 12.1875 C-4.70265722 7.62141076 -2.39327171 3.97406741 0 0 Z " fill="#86D268" transform="translate(641,296)"/>
<path d="M0 0 C1.25486905 3.76460716 0.57397645 4.62145961 -1 8.1875 C-1.46277344 9.25097656 -1.92554688 10.31445312 -2.40234375 11.41015625 C-2.92957031 12.59480469 -3.45679688 13.77945312 -4 15 C-5.1903614 17.70707966 -6.37601248 20.41622059 -7.5625 23.125 C-7.86389893 23.81126465 -8.16529785 24.4975293 -8.47583008 25.20458984 C-12.02681017 33.30638776 -15.22658535 41.46923699 -18.0703125 49.84765625 C-19 52 -19 52 -21 53 C-20.27595226 48.95295419 -19.16553713 45.10929598 -17.9375 41.1875 C-17.57527344 40.02605469 -17.21304688 38.86460937 -16.83984375 37.66796875 C-16.56269531 36.78753906 -16.28554688 35.90710938 -16 35 C-15.34 35 -14.68 35 -14 35 C-14.04125 34.319375 -14.0825 33.63875 -14.125 32.9375 C-13.97450035 29.40075832 -13.05624147 26.36676967 -12 23 C-11.34 23 -10.68 23 -10 23 C-9.00893214 20.52453272 -8.0192795 18.04854999 -7.03515625 15.5703125 C-1.39787798 1.39787798 -1.39787798 1.39787798 0 0 Z " fill="#65C36F" transform="translate(617,355)"/>
<path d="M0 0 C0.99 0.99 1.98 1.98 3 3 C3.66 2.34 4.32 1.68 5 1 C6.01467608 3.5366902 7.02735669 6.07181131 8 8.625 C8.99495495 11.19647651 8.99495495 11.19647651 11 14 C12.437073 18.15994815 13.24960437 20.78258524 12 25 C12.66 25.66 13.32 26.32 14 27 C13.01 27.33 12.02 27.66 11 28 C10.51080078 26.78763672 10.51080078 26.78763672 10.01171875 25.55078125 C9.57472656 24.48214844 9.13773438 23.41351563 8.6875 22.3125 C8.25824219 21.25675781 7.82898438 20.20101563 7.38671875 19.11328125 C6.10752422 16.24139944 4.63067683 13.68086815 3 11 C2.39594558 9.64274192 1.82873987 8.26802823 1.3125 6.875 C1.06113281 6.21242188 0.80976562 5.54984375 0.55078125 4.8671875 C0 3 0 3 0 0 Z " fill="#2FD1FE" transform="translate(118,259)"/>
<path d="M0 0 C0.66 0 1.32 0 2 0 C2.84454356 3.37817425 3.10844919 5.67465243 2 9 C2.66 9 3.32 9 4 9 C5.76462683 12.08809695 6 13.23312136 6 17 C6.66 17.33 7.32 17.66 8 18 C8.4140625 20.06640625 8.4140625 20.06640625 8.625 22.5625 C8.69976562 23.38878906 8.77453125 24.21507812 8.8515625 25.06640625 C8.90054688 25.70449219 8.94953125 26.34257812 9 27 C8.01 27.33 7.02 27.66 6 28 C3.81475966 24.5562115 2.19168888 21.21136446 0.8125 17.375 C0.46832031 16.43398438 0.12414062 15.49296875 -0.23046875 14.5234375 C-1 12 -1 12 -1 9 C-0.34 9 0.32 9 1 9 C0.67 6.03 0.34 3.06 0 0 Z " fill="#12B3F5" transform="translate(153,328)"/>
<path d="M0 0 C3.28434958 1.03940506 5.25055136 2.31881885 7.88671875 4.515625 C9.05847656 5.47662109 9.05847656 5.47662109 10.25390625 6.45703125 C10.83398438 6.95074219 11.4140625 7.44445312 12.01171875 7.953125 C8.57053539 7.953125 6.18414523 7.26347507 3.01171875 5.953125 C2.68171875 4.963125 2.35171875 3.973125 2.01171875 2.953125 C-0.46328125 2.458125 -0.46328125 2.458125 -2.98828125 1.953125 C-3.11203125 2.571875 -3.23578125 3.190625 -3.36328125 3.828125 C-3.98828125 5.953125 -3.98828125 5.953125 -5.98828125 7.953125 C-6.60703125 8.22125 -7.22578125 8.489375 -7.86328125 8.765625 C-10.65794683 10.32734988 -12.00652315 12.44678388 -13.98828125 14.953125 C-15.03075648 15.87218376 -16.09409862 16.76805047 -17.17578125 17.640625 C-20.00475358 19.64702751 -20.00475358 19.64702751 -20.98828125 21.953125 C-21.97828125 21.623125 -22.96828125 21.293125 -23.98828125 20.953125 C-18.71466129 15.02782197 -13.38603156 9.15097309 -7.67578125 3.640625 C-6.91652344 2.90199219 -6.15726562 2.16335938 -5.375 1.40234375 C-2.98828125 -0.046875 -2.98828125 -0.046875 0 0 Z " fill="#7ABE5C" transform="translate(388.98828125,435.046875)"/>
<path d="M0 0 C1.9375 1.1875 1.9375 1.1875 4 3 C4.37872934 4.65694085 4.70250054 6.32656552 5 8 C6.02245761 10.05309488 7.1156903 12.04628828 8.2578125 14.03515625 C9.16223819 16.42950426 8.8356927 17.62515175 8 20 C8 19.34 8 18.68 8 18 C7.34 18 6.68 18 6 18 C6.33 19.98 6.66 21.96 7 24 C4.4380799 21.4380799 3.33044364 18.53070425 1.9375 15.25 C1.66873047 14.6415625 1.39996094 14.033125 1.12304688 13.40625 C-0.49954807 9.61884634 -1.49238709 6.08597055 -2 2 C-1.34 2 -0.68 2 0 2 C0 1.34 0 0.68 0 0 Z " fill="#0998E5" transform="translate(174,380)"/>
<path d="M0 0 C0.66 0.99 1.32 1.98 2 3 C0.03125 6.9375 0.03125 6.9375 -1.9375 10.875 C-2.28554688 11.57496094 -2.63359375 12.27492188 -2.9921875 12.99609375 C-3.82637976 14.65477836 -4.69059786 16.29832399 -5.5625 17.9375 C-6.73476896 20.43494257 -7.60585442 22.75934052 -8.4375 25.375 C-9.64916428 29.15590006 -11.18431909 32.57117439 -13.02734375 36.08203125 C-13.98063796 37.96182024 -14.77936768 39.85671929 -15.5625 41.8125 C-16.81509491 44.58999306 -17.67372546 46.11682537 -20 48 C-19.29550317 43.51209428 -17.74722746 39.44363814 -16.0625 35.25 C-15.66514648 34.22326172 -15.66514648 34.22326172 -15.25976562 33.17578125 C-13.24307166 28.12153583 -13.24307166 28.12153583 -11 27 C-10.33474171 25.19354881 -10.33474171 25.19354881 -9.8125 22.9375 C-8.40052385 17.90413424 -6.47779056 13.21153249 -4.375 8.4375 C-4.06151611 7.72263428 -3.74803223 7.00776855 -3.42504883 6.27124023 C-1.14104516 1.14104516 -1.14104516 1.14104516 0 0 Z " fill="#80CE4F" transform="translate(623,310)"/>
<path d="M0 0 C0.66 0 1.32 0 2 0 C2.2475 0.66 2.495 1.32 2.75 2 C4.04522322 5.10853573 5.53391964 8.05520534 7.09765625 11.03515625 C8.01676755 13.03651116 8.6342726 14.82821135 9 17 C8.67 17.66 8.34 18.32 8 19 C8.639375 19.103125 9.27875 19.20625 9.9375 19.3125 C10.9584375 19.6528125 10.9584375 19.6528125 12 20 C12.33 20.99 12.66 21.98 13 23 C12.01 23 11.02 23 10 23 C10.33 24.32 10.66 25.64 11 27 C7.03480362 23.4423139 5.3953968 18.84396005 3.25 14.0625 C2.61384766 12.7022168 2.61384766 12.7022168 1.96484375 11.31445312 C1.56910156 10.43853516 1.17335937 9.56261719 0.765625 8.66015625 C0.22083496 7.46338257 0.22083496 7.46338257 -0.33496094 6.24243164 C-1.08340397 3.71877185 -0.87414932 2.44726845 0 0 Z " fill="#055CBD" transform="translate(218,483)"/>
<path d="M0 0 C2.91735638 0.31538988 4.57051187 0.60118959 6.75 2.625 C8.36474005 5.6930061 8.51999495 8.57996401 9 12 C9.53625 12.86625 10.0725 13.7325 10.625 14.625 C12 17 12 17 11.6875 19.8125 C11.460625 20.534375 11.23375 21.25625 11 22 C10.34 22 9.68 22 9 22 C7.49709189 18.52208234 5.99816184 15.04246452 4.5 11.5625 C4.07074219 10.56927734 3.64148438 9.57605469 3.19921875 8.55273438 C2.79316406 7.60849609 2.38710937 6.66425781 1.96875 5.69140625 C1.59169922 4.81685791 1.21464844 3.94230957 0.82617188 3.04125977 C0 1 0 1 0 0 Z " fill="#098DE2" transform="translate(182,407)"/>
<path d="M0 0 C2.06326977 0.08760589 4.1256716 0.19579273 6.1875 0.3125 C7.91033203 0.39951172 7.91033203 0.39951172 9.66796875 0.48828125 C13.14680104 1.02254506 15.14531638 1.9947326 18 4 C18.66 2.68 19.32 1.36 20 0 C20.33 1.32 20.66 2.64 21 4 C18.48322887 5.25838557 16.58706712 5.20818973 13.7734375 5.31640625 C12.7421875 5.35830078 11.7109375 5.40019531 10.6484375 5.44335938 C9.56820312 5.48267578 8.48796875 5.52199219 7.375 5.5625 C6.28703125 5.60568359 5.1990625 5.64886719 4.078125 5.69335938 C1.3855483 5.7996453 -1.30712253 5.90168057 -4 6 C-4 4.68 -4 3.36 -4 2 C-2.68 2.33 -1.36 2.66 0 3 C0 2.01 0 1.02 0 0 Z " fill="#53B96E" transform="translate(691,171)"/>
<path d="M0 0 C1.32 0 2.64 0 4 0 C4.33 0.99 4.66 1.98 5 3 C3.78258021 4.46815389 2.55051239 5.92416847 1.3125 7.375 C0.62800781 8.18710937 -0.05648437 8.99921875 -0.76171875 9.8359375 C-3.09861313 12.09534323 -4.9302743 13.02155853 -8 14 C-8.625 11.6875 -8.625 11.6875 -9 9 C-6.85855694 5.78783541 -5.23552564 4.94131538 -2 3 C-1.34 2.01 -0.68 1.02 0 0 Z " fill="#2A90A7" transform="translate(519,569)"/>
<path d="M0 0 C0.66 0.66 1.32 1.32 2 2 C1.04246202 4.08369901 0.0839392 6.16694547 -0.875 8.25 C-1.40867187 9.41015625 -1.94234375 10.5703125 -2.4921875 11.765625 C-3.62652038 14.19885719 -4.78424352 16.6071702 -6 19 C-6.433125 19.8971875 -6.433125 19.8971875 -6.875 20.8125 C-7.83469136 22.67856653 -8.87806136 24.50120169 -9.9375 26.3125 C-11.93627507 29.77306579 -13.4790457 33.30625384 -15 37 C-15.33 37.66 -15.66 38.32 -16 39 C-16.66 39 -17.32 39 -18 39 C-16.70882496 34.90686152 -15.18863281 31.08896165 -13.3203125 27.2265625 C-12.80339844 26.1540625 -12.28648437 25.0815625 -11.75390625 23.9765625 C-11.21636719 22.87054688 -10.67882812 21.76453125 -10.125 20.625 C-9.33029297 18.97757812 -9.33029297 18.97757812 -8.51953125 17.296875 C-5.72282008 11.50914022 -2.89144139 5.74097782 0 0 Z " fill="#AADB68" transform="translate(570,266)"/>
<path d="M0 0 C0.66 0.33 1.32 0.66 2 1 C1.32517578 1.83917969 1.32517578 1.83917969 0.63671875 2.6953125 C-3.41976627 7.75169262 -7.44197498 12.83296156 -11.4375 17.9375 C-16.20812055 24.02857504 -21.0707347 30.03619753 -26 36 C-26.33 35.34 -26.66 34.68 -27 34 C-26.67 33.34 -26.34 32.68 -26 32 C-25.34 32 -24.68 32 -24 32 C-22.76078698 29.02588876 -21.69941596 26.14737182 -21 23 C-19.68 23 -18.36 23 -17 23 C-15.74335022 20.09399739 -15 18.20395416 -15 15 C-14.4225 14.979375 -13.845 14.95875 -13.25 14.9375 C-9.61609879 13.4233745 -8.75149584 10.44043825 -7 7 C-6.34 7 -5.68 7 -5 7 C-4.34 5.68 -3.68 4.36 -3 3 C-2.34 3 -1.68 3 -1 3 C-0.67 2.01 -0.34 1.02 0 0 Z " fill="#1152C4" transform="translate(286,510)"/>
<path d="M0 0 C1.62880942 3.25761884 0.01074632 5.99782072 -1.046875 9.34375 C-2.38871019 13.08329069 -4.13141259 16.50256847 -6 20 C-6.66877282 21.37397684 -7.33544419 22.74897855 -8 24.125 C-9.74439156 27.62762749 -11.75715068 30.79592954 -14 34 C-15 31 -15 31 -13.9609375 28.46875 C-13.43757813 27.4890625 -12.91421875 26.509375 -12.375 25.5 C-10.26485817 21.45556149 -8.2364962 17.41509774 -6.375 13.25 C-4.36519763 8.768596 -2.22934033 4.37611251 0 0 Z " fill="#2DAD76" transform="translate(493,428)"/>
<path d="M0 0 C0.33 0 0.66 0 1 0 C1 3.96 1 7.92 1 12 C2.33804688 11.54947266 2.33804688 11.54947266 3.703125 11.08984375 C5.45882812 10.51943359 5.45882812 10.51943359 7.25 9.9375 C8.41015625 9.55464844 9.5703125 9.17179688 10.765625 8.77734375 C13.80077085 8.04788237 15.15703213 7.88110918 18 9 C17.21625 9.20625 16.4325 9.4125 15.625 9.625 C12.69083714 10.80676612 12.69083714 10.80676612 11.6875 14.125 C11.460625 15.07375 11.23375 16.0225 11 17 C10.01 16.34 9.02 15.68 8 15 C6.845 15 5.69 15 4.5 15 C1 15 1 15 -2 13 C-2.46271324 8.18778226 -1.74817615 4.47970138 0 0 Z " fill="#B8E057" transform="translate(634,245)"/>
<path d="M0 0 C1.125 1.75 1.125 1.75 2 4 C1.25 6 1.25 6 0 8 C-1.1097905 10.15021909 -2.08670348 12.23120927 -2.9375 14.5 C-4 17 -4 17 -5.3984375 18.796875 C-7.23978557 21.32985137 -8.42615503 23.886406 -9.6875 26.75 C-10.34298828 28.22726562 -10.34298828 28.22726562 -11.01171875 29.734375 C-11.33785156 30.48203125 -11.66398438 31.2296875 -12 32 C-13.32539861 28.02380418 -12.28367977 26.47682794 -10.75 22.625 C-10.31171875 21.50351562 -9.8734375 20.38203125 -9.421875 19.2265625 C-8.13395205 16.30396811 -6.64961156 13.72582872 -5 11 C-4.25569301 9.26499475 -3.54599149 7.51465479 -2.875 5.75 C-1.10047847 1.10047847 -1.10047847 1.10047847 0 0 Z " fill="#8DD246" transform="translate(637,278)"/>
<path d="M0 0 C1.18334564 3.55003693 0.79896199 4.06304713 -0.75 7.3125 C-1.31847656 8.50746094 -1.31847656 8.50746094 -1.8984375 9.7265625 C-2.26195312 10.47679687 -2.62546875 11.22703125 -3 12 C-3.45375 13.051875 -3.9075 14.10375 -4.375 15.1875 C-8.20774146 21.82109099 -12.76299884 24.96064041 -20.03125 27.38671875 C-24.80436674 28.37274418 -29.23880266 27.84725369 -34 27 C-32 25 -32 25 -29.390625 24.91015625 C-27.83601563 24.98556641 -27.83601563 24.98556641 -26.25 25.0625 C-21.31294014 25.16313551 -18.26019816 24.69065147 -14 22 C-13.34 22 -12.68 22 -12 22 C-11.67 21.01 -11.34 20.02 -11 19 C-10.34 19 -9.68 19 -9 19 C-8.61714844 17.98873047 -8.61714844 17.98873047 -8.2265625 16.95703125 C-6.77131195 13.44867244 -5.09052165 10.07321448 -3.375 6.6875 C-3.05015625 6.04232422 -2.7253125 5.39714844 -2.390625 4.73242188 C-1.59558044 3.15402459 -0.79804366 1.57688306 0 0 Z " fill="#209394" transform="translate(520,542)"/>
<path d="M0 0 C0.66 0.33 1.32 0.66 2 1 C1.6875 3.625 1.6875 3.625 0 7 C-3.45002833 9.46508333 -7.03613404 11.48630973 -11 13 C-11.99 12.67 -12.98 12.34 -14 12 C-13.34 10.35 -12.68 8.7 -12 7 C-11.34 7 -10.68 7 -10 7 C-9.54625 6.54625 -9.0925 6.0925 -8.625 5.625 C-6.85027247 3.85027247 -5.33533368 2.90400013 -3 2 C-2.34 2.33 -1.68 2.66 -1 3 C-0.67 2.01 -0.34 1.02 0 0 Z " fill="#086C95" transform="translate(342,547)"/>
<path d="M0 0 C3.71599191 -0.20086443 4.77208445 -0.1519437 8 2 C10.64632287 1.6878236 10.64632287 1.6878236 13 1 C13 1.66 13 2.32 13 3 C13.598125 2.67 14.19625 2.34 14.8125 2 C18.36764716 0.37478987 21.30798781 1.20172709 25 2 C25.33 1.34 25.66 0.68 26 0 C25.625 2.4375 25.625 2.4375 25 5 C19.92003897 7.53998052 13.65782638 5.64809698 8.37890625 4.51171875 C5.59971264 3.91389549 2.80760844 3.4433066 0 3 C0 2.01 0 1.02 0 0 Z " fill="#35B096" transform="translate(638,188)"/>
<path d="M0 0 C0.66 0.99 1.32 1.98 2 3 C1.44570313 4.02480469 0.89140625 5.04960937 0.3203125 6.10546875 C-0.41159763 7.46607091 -1.14336071 8.82675218 -1.875 10.1875 C-2.23980469 10.86103516 -2.60460937 11.53457031 -2.98046875 12.22851562 C-4.87742237 15.76374737 -6.53558594 19.25980733 -8 23 C-11.55555556 28.77777778 -11.55555556 28.77777778 -14 30 C-10.87879413 19.35117998 -5.66187373 9.51194787 0 0 Z " fill="#C3E554" transform="translate(585,236)"/>
<path d="M0 0 C2.9375 0.375 2.9375 0.375 6 1 C6.33 1.66 6.66 2.32 7 3 C7.66 3.28875 8.32 3.5775 9 3.875 C11 5 11 5 11.75 7.125 C11.87375 8.053125 11.87375 8.053125 12 9 C14.46800047 7.84826645 16.04783565 6.95216435 18 5 C17.50384615 9.58942308 17.50384615 9.58942308 14.953125 11.66796875 C14.30859375 12.10753906 13.6640625 12.54710937 13 13 C10.82727712 11.21526335 8.66186229 9.42280648 6.5 7.625 C5.87996094 7.11710937 5.25992187 6.60921875 4.62109375 6.0859375 C3.04294593 4.76792394 1.51707513 3.38787368 0 2 C0 1.34 0 0.68 0 0 Z " fill="#114BB5" transform="translate(458,457)"/>
<path d="M0 0 C0.66 0 1.32 0 2 0 C-2.47111326 9.9019943 -11.08411693 18.69440047 -18 27 C-18.33 26.34 -18.66 25.68 -19 25 C-17.6875 22.375 -17.6875 22.375 -16 20 C-15.34 20 -14.68 20 -14 20 C-14 18.68 -14 17.36 -14 16 C-13.01 15.67 -12.02 15.34 -11 15 C-9.96564444 13.35443434 -8.97236487 11.6829392 -8 10 C-6.35366057 7.9832342 -4.68732277 5.98260426 -3 4 C-2.443125 3.21625 -1.88625 2.4325 -1.3125 1.625 C-0.6628125 0.820625 -0.6628125 0.820625 0 0 Z " fill="#185BC4" transform="translate(327,457)"/>
<path d="M0 0 C4.6889493 0.55619669 8.19924267 1.88182673 12.375 4.0625 C13.43460938 4.61035156 14.49421875 5.15820312 15.5859375 5.72265625 C16.38257813 6.14417969 17.17921875 6.56570313 18 7 C13.28037739 8.4202568 8.76459357 8.17927648 4 7 C1.375 4.5625 1.375 4.5625 0 2 C0 1.34 0 0.68 0 0 Z " fill="#1DBEF9" transform="translate(187,256)"/>
<path d="M0 0 C0.66 0 1.32 0 2 0 C2 0.99 2 1.98 2 3 C1.34 3 0.68 3 0 3 C0.33 3.99 0.66 4.98 1 6 C0.3503125 6.5878125 0.3503125 6.5878125 -0.3125 7.1875 C-2.13858339 9.01043451 -2.13858339 9.01043451 -3.5 11.625 C-5 14 -5 14 -8 15 C-8.309375 15.804375 -8.61875 16.60875 -8.9375 17.4375 C-10.20206032 20.48732196 -11.08107459 20.73218391 -14 22 C-4.7988034 5.72311117 -4.7988034 5.72311117 0 0 Z " fill="#14678E" transform="translate(300,540)"/>
<path d="M0 0 C-3.40081852 2.9927203 -6.6634733 3.84359288 -11 5 C-12.33888096 5.48494901 -13.67224612 5.98536671 -15 6.5 C-20.28921177 8.51542499 -25.26394332 10.3476398 -31 10 C-28.18259089 7.67902225 -25.8281573 6.45109569 -22.3125 5.5 C-16.48521758 3.85839094 -10.68357117 2.16677007 -5.125 -0.25 C-3 -1 -3 -1 0 0 Z " fill="#279D80" transform="translate(425,503)"/>
<path d="M0 0 C0.66 0.33 1.32 0.66 2 1 C-0.475 2.485 -0.475 2.485 -3 4 C-3 3.34 -3 2.68 -3 2 C-2.01 1.34 -1.02 0.68 0 0 Z M-6 4 C-5.01 4.33 -4.02 4.66 -3 5 C-5.54721187 7.49529189 -8.11515887 9.96814207 -10.6875 12.4375 C-11.40873047 13.14455078 -12.12996094 13.85160156 -12.87304688 14.58007812 C-13.57880859 15.25361328 -14.28457031 15.92714844 -15.01171875 16.62109375 C-15.65584717 17.2442749 -16.29997559 17.86745605 -16.96362305 18.50952148 C-19.31171858 20.22815513 -21.13982916 20.63297732 -24 21 C-22.625 19.5 -22.625 19.5 -21 18 C-20.34 18 -19.68 18 -19 18 C-19 17.01 -19 16.02 -19 15 C-18.071875 14.87625 -18.071875 14.87625 -17.125 14.75 C-14.84452564 14.22201613 -14.84452564 14.22201613 -14.08203125 12.16015625 C-12.87534453 9.75113908 -11.58996119 8.44463303 -9.5625 6.6875 C-8.96566406 6.15511719 -8.36882812 5.62273437 -7.75390625 5.07421875 C-7.17511719 4.71972656 -6.59632813 4.36523438 -6 4 Z " fill="#4AB667" transform="translate(382,464)"/>
<path d="M0 0 C1.39291641 4.17874923 -0.3573598 6.65216103 -2.125 10.4375 C-2.77565145 11.87328504 -3.42538194 13.30948776 -4.07421875 14.74609375 C-4.56220947 15.81706299 -4.56220947 15.81706299 -5.06005859 16.90966797 C-7.15073469 21.5591144 -9.06230841 26.28524812 -11 31 C-12.09658936 27.71023192 -11.79953138 26.28696233 -11 23 C-10.34 23 -9.68 23 -9 23 C-8.87625 22.278125 -8.7525 21.55625 -8.625 20.8125 C-7.8149739 17.16738255 -6.39400554 13.92707186 -4.9375 10.5 C-4.00249669 8.00665785 -3.44920549 5.62036533 -3 3 C-2.34 3 -1.68 3 -1 3 C-0.67 2.01 -0.34 1.02 0 0 Z " fill="#5DBD7D" transform="translate(592,415)"/>
<path d="M0 0 C1.24625109 3.73875328 0.60418811 4.43591312 -1.08984375 7.88671875 C-1.54423828 8.82451172 -1.99863281 9.76230469 -2.46679688 10.72851562 C-2.95212891 11.70498047 -3.43746094 12.68144531 -3.9375 13.6875 C-4.41896484 14.67556641 -4.90042969 15.66363281 -5.39648438 16.68164062 C-6.58891956 19.12554244 -7.79035551 21.56458242 -9 24 C-9.66 22.68 -10.32 21.36 -11 20 C-10.2884375 19.39285156 -10.2884375 19.39285156 -9.5625 18.7734375 C-7.71431379 16.67574615 -7.44765558 15.35756427 -7 12.625 C-5.95917548 7.326257 -4.03572177 3.65136732 0 0 Z " fill="#1147A7" transform="translate(505,399)"/>
<path d="M0 0 C0.66 0.33 1.32 0.66 2 1 C0.53297403 5.55550171 -1.14606221 10.00177369 -2.9375 14.4375 C-3.31551758 15.38206055 -3.31551758 15.38206055 -3.70117188 16.34570312 C-5.40706726 20.59080852 -7.18474099 24.8005202 -9 29 C-9.33 29 -9.66 29 -10 29 C-10.60087164 24.34324476 -8.82058534 21.21783436 -6.87109375 17.13671875 C-5.82191915 14.96958762 -5.82191915 14.96958762 -6.0625 12.3125 C-5.96210405 8.59784996 -3.36728072 6.71371204 -1 4 C-0.14720662 1.78264561 -0.14720662 1.78264561 0 0 Z " fill="#8AD049" transform="translate(654,265)"/>
<path d="M0 0 C-8.42857143 3.42857143 -8.42857143 3.42857143 -13 3 C-13.33 3.66 -13.66 4.32 -14 5 C-15.97509143 5.23042733 -17.95078948 5.45729108 -19.9296875 5.65234375 C-22.7443545 6.12499538 -24.68981758 7.36928299 -27 9 C-27.99 9.495 -27.99 9.495 -29 10 C-28.67 8.35 -28.34 6.7 -28 5 C-16.28125 2.0703125 -16.28125 2.0703125 -14.14453125 1.54394531 C-12.69933923 1.17738249 -11.25908911 0.79082902 -9.82421875 0.38574219 C-6.1235012 -0.63555973 -3.66369962 -1.14060483 0 0 Z " fill="#CDE773" transform="translate(615,226)"/>
<path d="M0 0 C0.66 0 1.32 0 2 0 C1.2708194 6.19803509 -2.27707505 11.06422921 -7 15 C-9.61256544 16.45700765 -12.27916932 17.75845591 -15 19 C-15 18.01 -15 17.02 -15 16 C-13.20703125 14.60546875 -13.20703125 14.60546875 -10.8125 13.1875 C-6.03599103 10.15610927 -2.08645015 7.17577737 -0.1875 1.625 C-0.125625 1.08875 -0.06375 0.5525 0 0 Z " fill="#4CA992" transform="translate(476,462)"/>
<path d="M0 0 C-0.66666667 1.33333333 -1.33333333 2.66666667 -2 4 C-2.268125 4.70125 -2.53625 5.4025 -2.8125 6.125 C-4.41896255 8.66151982 -6.25559254 8.94445867 -9 10 C-9.33 10.99 -9.66 11.98 -10 13 C-12.0625 13.6875 -12.0625 13.6875 -14 14 C-14 14.66 -14 15.32 -14 16 C-14.66 15.67 -15.32 15.34 -16 15 C-3.18181818 0 -3.18181818 0 0 0 Z " fill="#1AA5E3" transform="translate(349,316)"/>
<path d="M0 0 C2.25071906 0.0872605 4.50063388 0.19544115 6.75 0.3125 C8.62945313 0.39951172 8.62945313 0.39951172 10.546875 0.48828125 C14.03076463 1.00455901 15.47889796 1.6253256 18 4 C14.15755536 5.38328007 10.96860469 4.60538038 7 4 C4.66696056 3.96296763 2.33284758 3.95239087 0 4 C0 2.68 0 1.36 0 0 Z " fill="#29AAA7" transform="translate(638,191)"/>
<path d="M0 0 C7.59 0 15.18 0 23 0 C23.33 0.66 23.66 1.32 24 2 C19.28670307 2.84839345 15.68408927 2.81462422 11 2 C10.175 2.165 9.35 2.33 8.5 2.5 C5.43577133 3.11284573 3.03534554 2.63530488 0 2 C0 1.34 0 0.68 0 0 Z " fill="#7DCE3F" transform="translate(688,162)"/>
<path d="M0 0 C0.66 0 1.32 0 2 0 C0.01880593 4.18818811 -2.60055631 7.61042687 -5.4375 11.25 C-5.92798828 11.8996875 -6.41847656 12.549375 -6.92382812 13.21875 C-8.21021614 14.87143743 -9.59920481 16.44309837 -11 18 C-11.99 18 -12.98 18 -14 18 C-13.34 17.67 -12.68 17.34 -12 17 C-11.28293018 15.01751285 -10.61709587 13.01584651 -10 11 C-9 9 -9 9 -6.6875 7.75 C-3.45478985 5.64497944 -2.06878466 3.21018309 0 0 Z " fill="#1454C4" transform="translate(306,484)"/>
<path d="M0 0 C0.33 0.66 0.66 1.32 1 2 C1.66 2 2.32 2 3 2 C2.979375 2.721875 2.95875 3.44375 2.9375 4.1875 C2.9013926 6.99350336 2.9013926 6.99350336 3.625 9.625 C4 12 4 12 2 15 C1.29866401 13.42274653 0.614417 11.83788667 -0.0625 10.25 C-0.44535156 9.36828125 -0.82820312 8.4865625 -1.22265625 7.578125 C-2.05073704 4.8317264 -2.03750724 3.63230408 -1 1 C-0.67 0.67 -0.34 0.34 0 0 Z " fill="#0676CE" transform="translate(206,452)"/>
<path d="M0 0 C3.36179774 1.44077046 5.59156268 3.24750021 8 6 C8 6.66 8 7.32 8 8 C7.34 8 6.68 8 6 8 C6 8.66 6 9.32 6 10 C3.13302508 8.71480435 1.02392288 7.42870746 -1 5 C-1 4.34 -1 3.68 -1 3 C-0.34 3 0.32 3 1 3 C0.67 2.01 0.34 1.02 0 0 Z " fill="#0964CC" transform="translate(402,397)"/>
<path d="M0 0 C1.28387802 3.85163405 0.43621406 4.91033377 -1.1875 8.5625 C-1.64898438 9.62082031 -2.11046875 10.67914063 -2.5859375 11.76953125 C-3.05257812 12.83558594 -3.51921875 13.90164063 -4 15 C-4.77920767 16.91327744 -5.55092849 18.82963442 -6.3125 20.75 C-6.63863281 21.56984375 -6.96476563 22.3896875 -7.30078125 23.234375 C-7.53152344 23.81703125 -7.76226563 24.3996875 -8 25 C-8.66 23.68 -9.32 22.36 -10 21 C-9.01 19.515 -9.01 19.515 -8 18 C-7.32210077 16.4301281 -6.67916877 14.84491842 -6.0625 13.25 C-1.42093373 1.42093373 -1.42093373 1.42093373 0 0 Z " fill="#76CA77" transform="translate(617,355)"/>
<path d="M0 0 C3.95969176 1.67229701 7.0161201 4.36304994 10.25 7.125 C10.80429687 7.59292969 11.35859375 8.06085938 11.9296875 8.54296875 C13.28947326 9.69175328 14.64515165 10.84539653 16 12 C15.34 12.66 14.68 13.32 14 14 C10.92207284 12.25306837 8.43931507 10.55547293 6 8 C5.34 7.67 4.68 7.34 4 7 C4 6.34 4 5.68 4 5 C3.01 4.67 2.02 4.34 1 4 C1.33 3.34 1.66 2.68 2 2 C1.34 2 0.68 2 0 2 C0 1.34 0 0.68 0 0 Z " fill="#47AA87" transform="translate(419,461)"/>
<path d="M0 0 C2.41676735 2.99622619 4.05351027 5.99066098 5.625 9.5 C6.05039063 10.4384375 6.47578125 11.376875 6.9140625 12.34375 C7.82502348 14.57199989 8.50160306 16.65199663 9 19 C8.01 18.67 7.02 18.34 6 18 C5.67 18.66 5.34 19.32 5 20 C4.896875 18.948125 4.79375 17.89625 4.6875 16.8125 C4.25373859 13.08044726 4.25373859 13.08044726 2.5 10.5625 C0.43453887 7.03400391 0.34385087 4.05744024 0 0 Z " fill="#46BEF4" transform="translate(212,276)"/>
<path d="M0 0 C0.99 0 1.98 0 3 0 C3 0.66 3 1.32 3 2 C2.01 2.495 2.01 2.495 1 3 C1 4.32 1 5.64 1 7 C0.67 7.66 0.34 8.32 0 9 C-0.66 9 -1.32 9 -2 9 C-3.10636395 11.39068734 -3.10636395 11.39068734 -4 14 C-3.67 14.66 -3.34 15.32 -3 16 C-4.98 16.99 -4.98 16.99 -7 18 C-6.36843005 12.94744036 -4.86540627 8.70406799 -3 4 C-2.34 4 -1.68 4 -1 4 C-0.67 2.68 -0.34 1.36 0 0 Z " fill="#38A876" transform="translate(556,462)"/>
<path d="M0 0 C0.66 0 1.32 0 2 0 C0.73130765 5.92056432 -1.13965435 10.66068812 -4 16 C-4.66 15.67 -5.32 15.34 -6 15 C-5.54979057 9.14727744 -2.96160773 4.91779881 0 0 Z " fill="#77CE4C" transform="translate(641,296)"/>
<path d="M0 0 C1.32 1.32 2.64 2.64 4 4 C4.33 3.34 4.66 2.68 5 2 C6.32 2 7.64 2 9 2 C7.63055898 4.94956528 6.12169591 7.52468811 4 10 C3.34 10 2.68 10 2 10 C1.01 7.03 0.02 4.06 -1 1 C-0.67 0.67 -0.34 0.34 0 0 Z " fill="#0D54D1" transform="translate(247,548)"/>
<path d="M0 0 C0.66 0.66 1.32 1.32 2 2 C-1.96 3.98 -5.92 5.96 -10 8 C-10.33 6.68 -10.66 5.36 -11 4 C-10.34 3.01 -9.68 2.02 -9 1 C-6.03 1.33 -3.06 1.66 0 2 C0 1.34 0 0.68 0 0 Z " fill="#105086" transform="translate(285,580)"/>
<path d="M0 0 C1.65 0.33 3.3 0.66 5 1 C3.625 2.5 3.625 2.5 2 4 C1.34 4 0.68 4 0 4 C0.33 6.31 0.66 8.62 1 11 C0.01 11 -0.98 11 -2 11 C-2 11.66 -2 12.32 -2 13 C-2.99 13.33 -3.98 13.66 -5 14 C-4.34580901 8.93001981 -2.1453591 4.58009223 0 0 Z " fill="#94D144" transform="translate(643,264)"/>
<path d="M0 0 C4.55737263 0.43820891 7.57653445 0.85041169 11 4 C9.6875 5.5 9.6875 5.5 8 7 C7.01 7 6.02 7 5 7 C4.67 6.34 4.34 5.68 4 5 C3.01 4.67 2.02 4.34 1 4 C0.3125 1.9375 0.3125 1.9375 0 0 Z " fill="#2DCCFE" transform="translate(178,252)"/>
<path d="M0 0 C0.66 0 1.32 0 2 0 C2 1.32 2 2.64 2 4 C2.66 4 3.32 4 4 4 C4.33 4.99 4.66 5.98 5 7 C4.67 7.66 4.34 8.32 4 9 C4.66 9 5.32 9 6 9 C5.67 10.32 5.34 11.64 5 13 C2.01906878 10.4449161 0.47640245 7.61718599 -1 4 C-0.6875 1.625 -0.6875 1.625 0 0 Z " fill="#0954C8" transform="translate(234,519)"/>
<path d="M0 0 C0.639375 0.268125 1.27875 0.53625 1.9375 0.8125 C9.02643759 3.56127172 15.38573592 5.39569333 23 6 C23 6.33 23 6.66 23 7 C17.65370398 8.0024305 13.37625234 7.84888195 8 7 C8 6.34 8 5.68 8 5 C7.13375 4.814375 7.13375 4.814375 6.25 4.625 C3.97664233 3.99351176 2.0746471 3.11141809 0 2 C0 1.34 0 0.68 0 0 Z " fill="#41A08C" transform="translate(435,474)"/>
<path d="M0 0 C2 3 2 3 1.8125 5.4375 C0.48129567 9.63591365 -1.35394817 11.56929878 -5 14 C-4.34580901 8.93001981 -2.1453591 4.58009223 0 0 Z " fill="#3EAC72" transform="translate(562,448)"/>
<path d="M0 0 C0.99 0.495 0.99 0.495 2 1 C2 2.32 2 3.64 2 5 C2.99 5.33 3.98 5.66 5 6 C5.33 8.31 5.66 10.62 6 13 C5.01 13.495 5.01 13.495 4 14 C-0.59225513 4.58997722 -0.59225513 4.58997722 0 0 Z " fill="#0855D1" transform="translate(240,533)"/>
<path d="M0 0 C-1.15585285 3.91211733 -2.35534962 6.8745041 -5 10 C-5 7.69 -5 5.38 -5 3 C-6.98 3 -8.96 3 -11 3 C-7.11595442 0.41063628 -4.5725325 -0.12358196 0 0 Z " fill="#ADDA6B" transform="translate(663,250)"/>
<path d="M0 0 C0 0.99 0 1.98 0 3 C-0.66 3 -1.32 3 -2 3 C-2.2475 3.53625 -2.495 4.0725 -2.75 4.625 C-4.29696975 7.56424252 -6.13014369 10.25754408 -8 13 C-8.99 12.67 -9.98 12.34 -11 12 C-9.73841989 10.18104721 -8.46542094 8.3700098 -7.1875 6.5625 C-6.47980469 5.55316406 -5.77210938 4.54382813 -5.04296875 3.50390625 C-3 1 -3 1 0 0 Z " fill="#1A7496" transform="translate(313,525)"/>
<path d="M0 0 C0.33 0 0.66 0 1 0 C1.97758625 5.45275886 1.97344509 10.42516763 1.5625 15.9375 C1.48418945 17.10635742 1.48418945 17.10635742 1.40429688 18.29882812 C1.27601936 20.19966772 1.13892679 22.09990904 1 24 C0.34 23.67 -0.32 23.34 -1 23 C-1.02714434 20.2915983 -1.04690846 17.58347279 -1.0625 14.875 C-1.07087891 14.11445313 -1.07925781 13.35390625 -1.08789062 12.5703125 C-1.10646509 8.2610356 -0.86117265 4.24483526 0 0 Z " fill="#0364C4" transform="translate(236,472)"/>
<path d="M0 0 C0.66 0.33 1.32 0.66 2 1 C0.75314243 2.58580914 -0.49763026 4.1685404 -1.75 5.75 C-2.44609375 6.63171875 -3.1421875 7.5134375 -3.859375 8.421875 C-5.79945897 10.75847248 -7.81512186 12.8938562 -10 15 C-9.37240135 12.07120629 -8.41377341 9.63904371 -7 7 C-6.34 7 -5.68 7 -5 7 C-4.34 5.68 -3.68 4.36 -3 3 C-2.34 3 -1.68 3 -1 3 C-0.67 2.01 -0.34 1.02 0 0 Z " fill="#1C59C9" transform="translate(286,510)"/>
<path d="M0 0 C1.28264727 3.84794181 0.43727514 4.89272212 -1.25 8.5 C-1.90742188 9.93859375 -1.90742188 9.93859375 -2.578125 11.40625 C-3.85951989 13.74373959 -5.00728364 15.26516458 -7 17 C-7.2535853 13.95697642 -7.24049526 12.39353769 -5.625 9.75 C-4 8 -4 8 -2 7 C-2.33 6.01 -2.66 5.02 -3 4 C-1.5625 1.8125 -1.5625 1.8125 0 0 Z " fill="#11569F" transform="translate(489,433)"/>
<path d="M0 0 C0 3 0 3 -2.625 5.91796875 C-3.74249406 7.01550756 -4.86785643 8.10507895 -6 9.1875 C-6.57234375 9.74630859 -7.1446875 10.30511719 -7.734375 10.88085938 C-9.14962788 12.26073093 -10.57397155 13.63126734 -12 15 C-12 10.39852874 -9.10228152 8.19311408 -6 5 C-4.05341967 3.24193983 -2.06456557 1.62215867 0 0 Z " fill="#017DCB" transform="translate(335,347)"/>
<path d="M0 0 C0.66 0.33 1.32 0.66 2 1 C1.071875 2.2684375 1.071875 2.2684375 0.125 3.5625 C-1.55427655 6.04618525 -2.16883554 7.61202882 -3 10.625 C-4.06282785 14.212044 -5.16836742 15.64030619 -8 18 C-7.34005027 13.99581065 -6.11658275 10.49455548 -4.5625 6.75 C-3.91474609 5.16445313 -3.91474609 5.16445313 -3.25390625 3.546875 C-2 1 -2 1 0 0 Z " fill="#73CA53" transform="translate(611,340)"/>
<path d="M0 0 C4.29 0.33 8.58 0.66 13 1 C12.67 1.66 12.34 2.32 12 3 C8.01624339 4.17169312 4.12560776 4.08089427 0 4 C0 2.68 0 1.36 0 0 Z " fill="#61BE68" transform="translate(691,171)"/>
<path d="M0 0 C3.45201639 1.47721422 5.64961936 3.43794001 8.25 6.125 C8.95640625 6.84945313 9.6628125 7.57390625 10.390625 8.3203125 C11.18726563 9.15175781 11.18726563 9.15175781 12 10 C11.01 10.33 10.02 10.66 9 11 C7.49403892 9.54782324 5.99537896 8.08807139 4.5 6.625 C3.6646875 5.81289063 2.829375 5.00078125 1.96875 4.1640625 C0 2 0 2 0 0 Z " fill="#2375CC" transform="translate(449,339)"/>
<path d="M0 0 C5.4556335 0.63437599 9.09695233 2.09695233 13 6 C10.6875 7.125 10.6875 7.125 8 8 C7.01 7.34 6.02 6.68 5 6 C5 5.01 5 4.02 5 3 C2.525 2.01 2.525 2.01 0 1 C0 0.67 0 0.34 0 0 Z " fill="#3FD1FF" transform="translate(105,216)"/>
<path d="M0 0 C1.18185615 3.54556846 0.80951792 4.01795562 -0.75 7.25 C-1.12125 8.03761719 -1.4925 8.82523438 -1.875 9.63671875 C-2.24625 10.41660156 -2.6175 11.19648437 -3 12 C-3.59060578 13.35101072 -4.17485835 14.7048339 -4.75 16.0625 C-5.36875 17.5165625 -5.36875 17.5165625 -6 19 C-6.33 19 -6.66 19 -7 19 C-7.20140476 15.37471432 -6.85776765 13.13498292 -5 10 C-4.34 10 -3.68 10 -3 10 C-2.814375 8.081875 -2.814375 8.081875 -2.625 6.125 C-2.25 2.25 -2.25 2.25 0 0 Z " fill="#3B9F9E" transform="translate(547,521)"/>
<path d="M0 0 C-0.33 0.66 -0.66 1.32 -1 2 C-2.5778125 2.433125 -2.5778125 2.433125 -4.1875 2.875 C-8.26783394 4.07903297 -10.61213359 5.52107336 -14 8 C-14.66 7.67 -15.32 7.34 -16 7 C-14.73299277 6.0158875 -13.4612381 5.03788503 -12.1875 4.0625 C-11.47980469 3.51722656 -10.77210938 2.97195313 -10.04296875 2.41015625 C-6.68210628 0.09032575 -3.97296003 -0.1073773 0 0 Z " fill="#56BB5C" transform="translate(395,458)"/>
<path d="M0 0 C2.6875 1.0625 2.6875 1.0625 3.6875 3.0625 C2.0375 2.7325 0.3875 2.4025 -1.3125 2.0625 C-1.993125 3.0525 -1.993125 3.0525 -2.6875 4.0625 C-3.22375 4.7225 -3.76 5.3825 -4.3125 6.0625 C-4.9725 6.0625 -5.6325 6.0625 -6.3125 6.0625 C-6.3125 6.7225 -6.3125 7.3825 -6.3125 8.0625 C-7.3025 7.7325 -8.2925 7.4025 -9.3125 7.0625 C-4.40429343 0.08309988 -4.40429343 0.08309988 0 0 Z " fill="#319E7C" transform="translate(343.3125,486.9375)"/>
<path d="M0 0 C2.475 0.495 2.475 0.495 5 1 C5 3.31 5 5.62 5 8 C4.01 8.495 4.01 8.495 3 9 C0 3.375 0 3.375 0 0 Z " fill="#0A57C0" transform="translate(229,511)"/>
<path d="M0 0 C1.08317983 4.33271932 0.88046438 5.05504811 -0.8125 8.9375 C-1.16957031 9.77152344 -1.52664063 10.60554688 -1.89453125 11.46484375 C-2.25933594 12.30144531 -2.62414062 13.13804687 -3 14 C-3.67183818 15.66458874 -4.3400321 17.33066942 -5 19 C-6.60080151 14.99799622 -5.29279692 11.95443764 -4 8 C-3.34 8 -2.68 8 -2 8 C-1.34 5.36 -0.68 2.72 0 0 Z " fill="#49B083" transform="translate(573,458)"/>
<path d="M0 0 C0.66 0.99 1.32 1.98 2 3 C1.50628906 3.40992188 1.01257813 3.81984375 0.50390625 4.2421875 C-0.13675781 4.78101563 -0.77742188 5.31984375 -1.4375 5.875 C-2.07558594 6.40867187 -2.71367187 6.94234375 -3.37109375 7.4921875 C-5.10805004 8.9222757 -5.10805004 8.9222757 -6 11 C-6.99 10.67 -7.98 10.34 -9 10 C-6.03 6.7 -3.06 3.4 0 0 Z " fill="#82C06A" transform="translate(374,446)"/>
<path d="M0 0 C0.66 0.99 1.32 1.98 2 3 C1.19185349 4.33597652 0.37836819 5.668725 -0.4375 7 C-1.11619141 8.11375 -1.11619141 8.11375 -1.80859375 9.25 C-2.20175781 9.8275 -2.59492188 10.405 -3 11 C-3.33 11 -3.66 11 -4 11 C-4.36630156 7.06225823 -4.30233203 5.43460229 -2 2.125 C-1.34 1.42375 -0.68 0.7225 0 0 Z " fill="#42B667" transform="translate(508,399)"/>
<path d="M0 0 C0.66 0.66 1.32 1.32 2 2 C0.02 6.29 -1.96 10.58 -4 15 C-4.33 15 -4.66 15 -5 15 C-4.5188509 9.22621075 -2.81532819 5.04140164 0 0 Z " fill="#B0DD53" transform="translate(570,266)"/>
<path d="M0 0 C0 0.99 0 1.98 0 3 C-0.5775 2.79375 -1.155 2.5875 -1.75 2.375 C-4.54943279 1.90842787 -5.53703502 2.72879227 -8 4 C-8.99 3.67 -9.98 3.34 -11 3 C-10.67 2.01 -10.34 1.02 -10 0 C-6.58729758 -1.51675663 -3.55830874 -0.72783588 0 0 Z " fill="#24948B" transform="translate(398,513)"/>
<path d="M0 0 C0.66 0 1.32 0 2 0 C0.47987323 5.40489519 -3.27385218 8.98492628 -7 13 C-7 9.19794574 -5.7999031 7.88843439 -3.625 4.8125 C-2.99851562 3.91144531 -2.37203125 3.01039063 -1.7265625 2.08203125 C-1.15679687 1.39496094 -0.58703125 0.70789063 0 0 Z " fill="#145CBE" transform="translate(342,438)"/>
<path d="M0 0 C0.66 0 1.32 0 2 0 C0.47987323 5.40489519 -3.27385218 8.98492628 -7 13 C-7 9.41648654 -6.24028157 8.67894268 -4.0625 5.9375 C-1.81660545 3.10515084 -1.81660545 3.10515084 0 0 Z " fill="#1A6ABF" transform="translate(370,403)"/>
<path d="M0 0 C0.66 0.33 1.32 0.66 2 1 C0.35 2.65 -1.3 4.3 -3 6 C-3 4.68 -3 3.36 -3 2 C-2.01 2 -1.02 2 0 2 C0 1.34 0 0.68 0 0 Z M-5 6 C-4.34 6.33 -3.68 6.66 -3 7 C-4.65 8.65 -6.3 10.3 -8 12 C-6.125 7.125 -6.125 7.125 -5 6 Z " fill="#047AC9" transform="translate(272,398)"/>
<path d="M0 0 C-4.44404597 3.62107449 -8.21434368 5.33060893 -14 5 C-9.55595403 1.37892551 -5.78565632 -0.33060893 0 0 Z " fill="#2B9E81" transform="translate(439,498)"/>
<path d="M0 0 C-0.33 1.32 -0.66 2.64 -1 4 C0.32 4.99 1.64 5.98 3 7 C2.67 7.66 2.34 8.32 2 9 C1.4225 8.54625 0.845 8.0925 0.25 7.625 C-1.7800333 6.15886484 -3.73539843 5.05142216 -6 4 C-2.25 0 -2.25 0 0 0 Z " fill="#46AF73" transform="translate(346,482)"/>
<path d="M0 0 C2.67710191 1.33855096 2.95129094 2.72058088 4.125 5.4375 C4.47820312 6.24058594 4.83140625 7.04367187 5.1953125 7.87109375 C6 10 6 10 6 12 C3 11 3 11 1.3125 7.6875 C0 4 0 4 0 0 Z " fill="#5AC3F7" transform="translate(206,264)"/>
<path d="M0 0 C0.28875 0.598125 0.5775 1.19625 0.875 1.8125 C2.04742026 4.19327792 2.04742026 4.19327792 4 7 C0.00499382 5.6302836 -2.80009492 3.74277578 -6 1 C-4.7934375 1.0309375 -4.7934375 1.0309375 -3.5625 1.0625 C-1.06645115 1.29633621 -1.06645115 1.29633621 0 0 Z " fill="#3992A9" transform="translate(414,538)"/>
<path d="M0 0 C0.66 0 1.32 0 2 0 C1.46884894 4.51478398 -0.36620292 7.34666857 -3 11 C-3.6875 9.1875 -3.6875 9.1875 -4 7 C-2.625 5.5 -2.625 5.5 -1 4 C-0.28552357 1.89667109 -0.28552357 1.89667109 0 0 Z " fill="#279680" transform="translate(476,462)"/>
<path d="M0 0 C1.343231 2.686462 0.67960047 3.69297114 -0.25 6.5 C-0.62898438 7.69109375 -0.62898438 7.69109375 -1.015625 8.90625 C-2 11 -2 11 -5 13 C-4.32116957 9.88452559 -3.25893098 7.14862279 -1.9375 4.25 C-1.57527344 3.45078125 -1.21304687 2.6515625 -0.83984375 1.828125 C-0.56269531 1.22484375 -0.28554688 0.6215625 0 0 Z " fill="#28A37C" transform="translate(483,449)"/>
<path d="M0 0 C0.66 0 1.32 0 2 0 C0.84414715 3.91211733 -0.35534962 6.8745041 -3 10 C-3 7.69 -3 5.38 -3 3 C-2.01 2.67 -1.02 2.34 0 2 C0 1.34 0 0.68 0 0 Z " fill="#8AD377" transform="translate(626,334)"/>
<path d="M0 0 C0.33 1.32 0.66 2.64 1 4 C0.34 4 -0.32 4 -1 4 C-1.33 4.99 -1.66 5.98 -2 7 C-3.65 7.33 -5.3 7.66 -7 8 C-6.02133662 6.85373678 -5.04205413 5.70800212 -4.0625 4.5625 C-3.51722656 3.92441406 -2.97195313 3.28632813 -2.41015625 2.62890625 C-1.63204305 1.73008851 -0.84063472 0.84063472 0 0 Z " fill="#39BBF1" transform="translate(369,292)"/>
<path d="M0 0 C0.99 0.99 1.98 1.98 3 3 C3.66 2.34 4.32 1.68 5 1 C5.33 2.65 5.66 4.3 6 6 C5.34 6 4.68 6 4 6 C4 7.65 4 9.3 4 11 C3.33333333 9.66666667 2.66666667 8.33333333 2 7 C1.62875 6.319375 1.2575 5.63875 0.875 4.9375 C0 3 0 3 0 0 Z " fill="#40D3FE" transform="translate(118,259)"/>
<path d="M0 0 C2.0625 0.4375 2.0625 0.4375 4 1 C4 1.66 4 2.32 4 3 C5.32 3 6.64 3 8 3 C7.67 3.99 7.34 4.98 7 6 C3.62496331 4.8141763 1.35277269 3.72426311 -1 1 C-0.67 0.67 -0.34 0.34 0 0 Z " fill="#368EAB" transform="translate(459,569)"/>
<path d="M0 0 C0.33 0.66 0.66 1.32 1 2 C-0.80831392 5.61662784 -3.05278838 8.25604436 -6 11 C-6.66 10.67 -7.32 10.34 -8 10 C-5.36 6.7 -2.72 3.4 0 0 Z " fill="#6EB87A" transform="translate(352,471)"/>
<path d="M0 0 C0.33 0.66 0.66 1.32 1 2 C0.3125 4.0625 0.3125 4.0625 -1 6 C-3.125 6.75 -3.125 6.75 -5 7 C-5 7.66 -5 8.32 -5 9 C-5.66 8.67 -6.32 8.34 -7 8 C-4.69 5.36 -2.38 2.72 0 0 Z " fill="#35A8E0" transform="translate(340,323)"/>
<path d="M0 0 C0.66 0.33 1.32 0.66 2 1 C0.58192622 5.47238653 -1.11304374 9.71146306 -3 14 C-3.33 14 -3.66 14 -4 14 C-4.68041782 8.72676192 -2.24786337 4.60611289 0 0 Z " fill="#90D35E" transform="translate(648,280)"/>
<path d="M0 0 C3.95820859 0.56545837 6.6659053 1.80902348 10 4 C9.34 4.66 8.68 5.32 8 6 C6.66402348 5.19185349 5.331275 4.37836819 4 3.5625 C3.2575 3.11003906 2.515 2.65757812 1.75 2.19140625 C1.1725 1.79824219 0.595 1.40507813 0 1 C0 0.67 0 0.34 0 0 Z " fill="#388FAA" transform="translate(435,556)"/>
<path d="M0 0 C4.75 0.75 4.75 0.75 7 3 C4.525 4.485 4.525 4.485 2 6 C1.34 4.02 0.68 2.04 0 0 Z " fill="#3CD5FF" transform="translate(98,213)"/>
<path d="M0 0 C0.33 0.99 0.66 1.98 1 3 C0.00390625 4.82421875 0.00390625 4.82421875 -1.4375 6.6875 C-1.91058594 7.31011719 -2.38367188 7.93273437 -2.87109375 8.57421875 C-3.24363281 9.04472656 -3.61617188 9.51523437 -4 10 C-4.66 9.67 -5.32 9.34 -6 9 C-4.02 6.03 -2.04 3.06 0 0 Z " fill="#23698E" transform="translate(292,552)"/>
<path d="M0 0 C2.03144641 0.93446535 4.03533587 1.93224776 6 3 C6 3.99 6 4.98 6 6 C2.62496331 4.8141763 0.35277269 3.72426311 -2 1 C-1.34 0.67 -0.68 0.34 0 0 Z " fill="#3B8EA4" transform="translate(393,527)"/>
<path d="M0 0 C0.66 0.33 1.32 0.66 2 1 C0.02 1.99 0.02 1.99 -2 3 C-1.34 2.01 -0.68 1.02 0 0 Z M-6 4 C-5.01 4.33 -4.02 4.66 -3 5 C-3.99 6.485 -3.99 6.485 -5 8 C-5.99 7.67 -6.98 7.34 -8 7 C-7.34 6.01 -6.68 5.02 -6 4 Z " fill="#0B748D" transform="translate(370,530)"/>
<path d="M0 0 C1.98 0 3.96 0 6 0 C5.34 1.32 4.68 2.64 4 4 C3.01 4 2.02 4 1 4 C0.67 2.68 0.34 1.36 0 0 Z " fill="#0B54C7" transform="translate(286,504)"/>
<path d="M0 0 C0.625 1.8125 0.625 1.8125 1 4 C0.01 5.485 0.01 5.485 -1 7 C-2.32 6.67 -3.64 6.34 -5 6 C-3.35 4.02 -1.7 2.04 0 0 Z " fill="#359C90" transform="translate(333,495)"/>
<path d="M0 0 C2.475 0.99 2.475 0.99 5 2 C5 3.65 5 5.3 5 7 C4.01 7.495 4.01 7.495 3 8 C2.01 5.36 1.02 2.72 0 0 Z " fill="#0F60C3" transform="translate(222,497)"/>
<path d="M0 0 C0.33 0.66 0.66 1.32 1 2 C0.22265625 3.9453125 0.22265625 3.9453125 -0.9375 6.125 C-1.31777344 6.84945313 -1.69804687 7.57390625 -2.08984375 8.3203125 C-2.39019531 8.87460937 -2.69054687 9.42890625 -3 10 C-3.33 10 -3.66 10 -4 10 C-4.41176754 6.39703406 -4.1535853 5.21597933 -2 2.1875 C-1.34 1.465625 -0.68 0.74375 0 0 Z " fill="#114DA8" transform="translate(494,423)"/>
<path d="M0 0 C0.99 0.33 1.98 0.66 3 1 C3 2.65 3 4.3 3 6 C2.01 6.33 1.02 6.66 0 7 C-1.125 2.25 -1.125 2.25 0 0 Z " fill="#0C9FEE" transform="translate(175,386)"/>
<path d="M0 0 C1.85776765 3.13498292 2.20140476 5.37471432 2 9 C1.01 8.67 0.02 8.34 -1 8 C-0.67 5.36 -0.34 2.72 0 0 Z " fill="#1BA884" transform="translate(710,179)"/>
<path d="M0 0 C2.97 0 5.94 0 9 0 C8.67 0.99 8.34 1.98 8 3 C7.38125 2.814375 6.7625 2.62875 6.125 2.4375 C3.95839822 1.76313824 3.95839822 1.76313824 2 3 C1.34 2.67 0.68 2.34 0 2 C0 1.34 0 0.68 0 0 Z " fill="#49C26A" transform="translate(655,177)"/>
<path d="M0 0 C0.33 1.32 0.66 2.64 1 4 C-0.65 5.32 -2.3 6.64 -4 8 C-4.66 7.01 -5.32 6.02 -6 5 C-4.68 5 -3.36 5 -2 5 C-1.34 3.35 -0.68 1.7 0 0 Z " fill="#1556A4" transform="translate(475,462)"/>
<path d="M0 0 C2.97 0.495 2.97 0.495 6 1 C6 1.99 6 2.98 6 4 C5.01 4.33 4.02 4.66 3 5 C1.5 3.625 1.5 3.625 0 2 C0 1.34 0 0.68 0 0 Z " fill="#1A54BD" transform="translate(458,457)"/>
<path d="M0 0 C0.33 0.66 0.66 1.32 1 2 C-1.48387097 8.74193548 -1.48387097 8.74193548 -4 10 C-2.99806563 6.20696275 -2.18975773 3.28463659 0 0 Z " fill="#4CB86D" transform="translate(572,426)"/>
<path d="M0 0 C2.79872437 2.52788007 4.45773019 4.20411134 5 8 C4.01 7.67 3.02 7.34 2 7 C1.67 7.66 1.34 8.32 1 9 C0.67 6.03 0.34 3.06 0 0 Z " fill="#23ADEC" transform="translate(216,287)"/>
<path d="M0 0 C1 3 1 3 -0.4375 6.1875 C-1.2109375 7.5796875 -1.2109375 7.5796875 -2 9 C-2.66 8.34 -3.32 7.68 -4 7 C-1.125 1.125 -1.125 1.125 0 0 Z " fill="#67C763" transform="translate(617,355)"/>
<path d="M0 0 C0.33 0.99 0.66 1.98 1 3 C-0.65 4.32 -2.3 5.64 -4 7 C-4.66 6.67 -5.32 6.34 -6 6 C-4.02 4.02 -2.04 2.04 0 0 Z " fill="#3AA2DC" transform="translate(328,336)"/>
<path d="M0 0 C0.99 0.33 1.98 0.66 3 1 C1.35 2.98 -0.3 4.96 -2 7 C-2.66 6.34 -3.32 5.68 -4 5 C-2.68 3.35 -1.36 1.7 0 0 Z " fill="#38B1E8" transform="translate(352,310)"/>
<path d="M0 0 C2.50298434 2.93828597 3.46930939 5.17902761 4 9 C3.34 9 2.68 9 2 9 C0.14223235 5.86501708 -0.20140476 3.62528568 0 0 Z " fill="#3BB2ED" transform="translate(222,297)"/>
<path d="M0 0 C0.66 0 1.32 0 2 0 C1.34 2.64 0.68 5.28 0 8 C-1.125 6.25 -1.125 6.25 -2 4 C-1.125 1.75 -1.125 1.75 0 0 Z " fill="#8BD55F" transform="translate(641,296)"/>
<path d="M0 0 C0.66 0 1.32 0 2 0 C0.80100302 3.0831351 -0.47700477 6.06279492 -2 9 C-2.33 8.34 -2.66 7.68 -3 7 C-2.06421005 4.64018187 -1.06652192 2.30368736 0 0 Z " fill="#A3D539" transform="translate(647,255)"/>
<path d="M0 0 C0.66 0 1.32 0 2 0 C1.25 6.75 1.25 6.75 -1 9 C-1.09765625 2.84765625 -1.09765625 2.84765625 -1 1 C-0.67 0.67 -0.34 0.34 0 0 Z " fill="#98D449" transform="translate(659,251)"/>
</svg>
